<?xml version="1.0" encoding="UTF-8"?><svg xmlns="http://www.w3.org/2000/svg" height="425.2pt" version="1.1" viewBox="0 0 425.2 425.2" width="425.2pt">
 <g id="surface1">
  <g><path d="m297.89 291.44c-1.23 0-2.43-1-3.66-3.04-0.13-0.28-2.52-5.42-1.66-8.51-0.27-0.78-1.5-3.87-4.17-5.49-0.04 2.4-0.39 7.67-2.74 9.17-0.11 0.06-1.11 0.55-2.19 0.55-0.9 0-1.64-0.34-2.13-0.98-0.89-1.16-0.93-3.22-0.11-6.28-0.11-1.3-0.79-11.56 2.12-15.83-0.96-3.81-10.62-42.18-16.46-58.04l-0.28-0.77 23.79-3.77 0.15 0.6c0.09 0.38 9.51 38.16 7.06 65.88 0.66 1.53 5.14 12.51 2.5 24.96l-0.02 0.1-0.05 0.09c-0.27 0.5-1.04 1.35-2.15 1.36" fill="#f6b786"/></g>
  <g><path d="m290.9 197.69l-1.22 0.19-22.36 3.54-1.63 0.26 0.57 1.54c5.7 15.5 15.07 52.57 16.36 57.69-2.78 4.48-2.23 13.95-2.08 15.88-0.83 3.23-0.75 5.44 0.26 6.76 0.63 0.81 1.55 1.25 2.67 1.25 1.22 0 2.31-0.53 2.42-0.59l0.07-0.03 0.06-0.04c2.25-1.43 2.87-5.63 3.02-8.44 1.66 1.44 2.53 3.44 2.83 4.23-0.76 3.27 1.45 8.13 1.72 8.7l0.03 0.06 0.04 0.06c1.35 2.26 2.74 3.36 4.23 3.36 1.76 0 2.65-1.53 2.74-1.7l0.1-0.18 0.04-0.19c2.6-12.28-1.6-23.15-2.47-25.22 2.41-27.81-7-65.55-7.09-65.93l-0.31-1.2m-1.01 1.53s9.56 37.89 7.03 65.83c0 0 5.3 11.62 2.53 24.7 0 0-0.55 1.01-1.56 1.01-0.77 0-1.81-0.6-3.07-2.71 0 0-2.52-5.34-1.53-8.16 0 0-1.45-4.87-5.58-6.6 0 0 0.25 8.02-2.41 9.71 0 0-0.89 0.44-1.83 0.44-1.45 0-3.03-1.06-1.56-6.53 0 0-0.98-11.62 2.17-15.74 0 0-10.36-41.57-16.55-58.41l22.36-3.54" fill="#3c2015"/></g>
  <g><path d="m295.76 289.4c-0.3-0.36-0.62-0.79-0.94-1.35 0 0-1.76-3.73-1.76-6.6 0-0.57 0.06-1.1 0.23-1.56 0 0-1.45-4.87-5.58-6.6 0 0 0.01 0.19 0.01 0.52 0 1.8-0.17 7.76-2.42 9.19 0 0-0.89 0.44-1.83 0.44-0.47 0-0.97-0.11-1.36-0.46-0.63-0.56-1-1.73-0.65-4v-0.01c0.1-0.61 0.24-1.29 0.45-2.06 0 0-0.14-1.71-0.14-4.05 0-3.76 0.37-9.15 2.31-11.69v-0.01h-0.01c-0.09-0.37-4.83-19.37-9.78-36.78 1.32 0.29 2.66 0.44 4.02 0.44 6.05 0 11.49-2.87 15.58-5.94 0.24 1.4 0.48 2.85 0.71 4.35l-9.68 9.11s5.42 19.98 6.89 33.76c0 0 3.88 11.94 3.95 23.3" fill="#df9565"/></g>
  <g><path d="m294.82 288.05s-1.76-3.73-1.76-6.6c0 2.87 1.76 6.6 1.76 6.6m-11.35-4.61c-0.47 0-0.97-0.11-1.36-0.46 0.39 0.35 0.89 0.46 1.36 0.46 0.94 0 1.83-0.44 1.83-0.44 2.25-1.43 2.42-7.39 2.42-9.19 0 1.8-0.17 7.76-2.42 9.19 0 0-0.89 0.44-1.83 0.44m9.82-3.55s-1.45-4.87-5.58-6.6c4.13 1.73 5.58 6.6 5.58 6.6m-11.83-0.91m0-0.01c0.1-0.61 0.24-1.29 0.45-2.06-0.21 0.77-0.35 1.45-0.45 2.06m0.45-2.06s-0.14-1.71-0.14-4.05c0 2.34 0.14 4.05 0.14 4.05m2.17-15.74m0-0.01h-0.01 0.01m-0.01 0c-0.09-0.38-4.83-19.37-9.79-36.78h0.01c4.95 17.41 9.69 36.41 9.78 36.78" fill="#804a2d"/></g>
  <g><path d="m257.72 352.62s4.07 3.77 11.66 9.17c0 0 13.63 3.74 14.69 20.37 0 0 1.99 13.47-19.17 8.13 0 0-11.59-4.86-16.44-13.01 0 0-7.88-2.37-12.17-8.66 0 0-0.38-16.26 6.45-19.55l14.98 3.55" fill="#3c2015"/></g>
  <g><path d="m257.72 352.62l-0.5 0.54c0.02 0.01 4.11 3.8 11.73 9.22l0.11 0.08 0.12 0.03 0.03 0.01c0.34 0.1 3.65 1.13 6.96 4.07 3.32 2.95 6.66 7.77 7.17 15.64v0.03 0.03c0.01 0.05 0.05 0.34 0.05 0.78 0 1.08-0.22 3.04-1.5 4.68-0.65 0.82-1.55 1.58-2.87 2.15-1.33 0.56-3.09 0.93-5.41 0.93-2.27 0.01-5.07-0.35-8.53-1.22l-0.18 0.7 0.28-0.67-0.12-0.05c-0.62-0.27-3.52-1.59-6.82-3.77-3.3-2.17-6.97-5.22-9.15-8.89l-0.14-0.25-0.28-0.08-0.07-0.03c-0.41-0.12-2.38-0.79-4.72-2.14-2.35-1.35-5.06-3.38-6.99-6.2l-0.6 0.41 0.73-0.01v-0.45c0-1.31 0.07-5.31 0.9-9.29 0.42-1.99 1.02-3.98 1.87-5.61 0.84-1.64 1.92-2.89 3.26-3.53l-0.31-0.66-0.17 0.71 14.98 3.55 0.17-0.71-0.5 0.54 0.5-0.54 0.17-0.71-15.24-3.61-0.23 0.11c-1.73 0.84-2.99 2.38-3.93 4.18-1.4 2.71-2.12 6.08-2.51 9.04-0.38 2.96-0.42 5.5-0.42 6.53v0.48l0.01 0.22 0.12 0.18c2.24 3.28 5.38 5.5 7.95 6.91s4.58 2.01 4.61 2.03l0.21-0.7-0.62 0.37c2.52 4.24 6.71 7.54 10.27 9.81 3.55 2.27 6.48 3.49 6.51 3.5l0.05 0.02 0.05 0.02c3.55 0.89 6.47 1.27 8.89 1.27 2.48 0 4.43-0.39 5.98-1.06 2.31-0.98 3.67-2.57 4.39-4.14 0.73-1.56 0.86-3.07 0.86-4.02 0-0.59-0.05-0.97-0.05-1l-0.72 0.11 0.72-0.05c-0.53-8.51-4.33-13.82-7.99-16.93-3.67-3.11-7.17-4.07-7.23-4.09l-0.19 0.7 0.42-0.59c-3.78-2.69-6.68-4.97-8.64-6.58-0.97-0.8-1.71-1.44-2.21-1.87-0.25-0.22-0.43-0.39-0.56-0.5-0.12-0.11-0.18-0.16-0.18-0.16l-0.14-0.13-0.18-0.05-0.17 0.71" fill="#3c2015"/></g>
  <g><path d="m261.89 356.14c1.74 1.4 4.02 3.16 6.79 5.15-3.97 1.23-8.48 4.53-12.23 9.9 0 0-8.74-8.74 5.44-15.05" fill="#fff"/></g>
  <g><path d="m201.57 352.62s-4.06 3.77-11.66 9.17c0 0-13.62 3.74-14.68 20.37 0 0-2 13.47 19.16 8.13 0 0 11.59-4.86 16.44-13.01 0 0 7.88-2.37 12.17-8.66 0 0 0.38-16.26-6.45-19.55l-14.98 3.55" fill="#3c2015"/></g>
  <g><path d="m201.57 352.62l-0.49-0.53s-0.06 0.05-0.19 0.16c-0.86 0.78-4.78 4.24-11.4 8.95l0.42 0.59-0.19-0.7c-0.06 0.02-3.56 0.98-7.22 4.09s-7.46 8.42-8 16.93l0.73 0.05-0.73-0.11c0 0.03-0.05 0.41-0.05 1 0 1.26 0.23 3.55 1.81 5.57 0.78 1.01 1.9 1.94 3.44 2.59 1.55 0.67 3.5 1.06 5.98 1.06 2.42 0 5.34-0.38 8.89-1.27l0.05-0.02 0.05-0.02c0.03-0.01 2.95-1.23 6.51-3.5s7.75-5.57 10.27-9.81l-0.62-0.37 0.21 0.7c0.03-0.02 2.05-0.62 4.62-2.03 2.56-1.41 5.7-3.63 7.94-6.91l0.12-0.18 0.01-0.22v-0.48c0-1.37-0.07-5.44-0.93-9.59-0.44-2.08-1.06-4.18-2-5.98s-2.2-3.34-3.93-4.18l-0.23-0.11-15.42 3.66-0.14 0.13 0.49 0.53 0.17 0.71 14.98-3.55-0.17-0.71-0.31 0.66c1.33 0.64 2.42 1.89 3.27 3.53 1.27 2.45 1.98 5.69 2.35 8.56 0.37 2.86 0.42 5.35 0.42 6.34 0 0.29-0.01 0.45-0.01 0.45l0.73 0.01-0.6-0.41c-2.05 3.01-5 5.12-7.45 6.46-1.22 0.67-2.31 1.15-3.09 1.46-0.4 0.16-0.71 0.27-0.92 0.35-0.11 0.03-0.19 0.06-0.24 0.07l-0.08 0.03-0.27 0.08-0.15 0.25c-2.32 3.91-6.35 7.12-9.8 9.32-1.73 1.1-3.31 1.95-4.45 2.52-0.57 0.29-1.04 0.51-1.36 0.66-0.16 0.07-0.28 0.12-0.36 0.16l-0.12 0.05 0.28 0.67-0.18-0.7c-3.45 0.87-6.26 1.23-8.53 1.22-2.32 0-4.08-0.37-5.4-0.93-1.99-0.86-3.04-2.13-3.65-3.42-0.6-1.29-0.73-2.6-0.73-3.41 0-0.25 0.01-0.46 0.03-0.59l0.01-0.15 0.01-0.04v-0.06c0.53-8.12 4.07-13 7.49-15.92 1.71-1.45 3.39-2.41 4.64-3 0.62-0.29 1.14-0.49 1.49-0.62 0.18-0.06 0.32-0.11 0.41-0.14l0.1-0.03 0.03-0.01 0.12-0.03 0.11-0.08c7.62-5.42 11.71-9.21 11.73-9.22l-0.5-0.54 0.17 0.71-0.17-0.71" fill="#3c2015"/></g>
  <g><path d="m197.4 356.14c-1.74 1.4-4.01 3.16-6.79 5.15 3.97 1.23 8.48 4.53 12.23 9.9 0 0 8.74-8.74-5.44-15.05" fill="#fff"/></g>
  <g><path d="m249.22 357.78c-2.34 0-4.95-0.57-7.74-1.67l-0.34-0.13-14.22-49.37 23.74-9.84 7.53 56.57-0.13 0.21c-0.09 0.17-2.47 4.23-8.84 4.23" fill="#f6b786"/></g>
  <g><path d="m251.25 295.73l-1.75 0.73-22.26 9.23-1.2 0.5 0.36 1.25 13.95 48.4 0.2 0.68 0.66 0.27c2.88 1.14 5.57 1.71 8.01 1.71 6.79 0 9.37-4.41 9.48-4.59l0.24-0.43-0.06-0.48-7.38-55.39-0.25-1.88m-1.19 2.07l7.37 55.39s-2.19 3.86-8.21 3.86c-2.03 0-4.5-0.44-7.47-1.62l-13.95-48.39 22.26-9.24" fill="#3c2015"/></g>
  <g><path d="m241.27 335.18c-1.6 0-3.22-0.13-4.83-0.39l-0.67-0.11-3.85-13.35c7.24-0.29 14.19-1.38 20.84-3.26l0.15 1.16 0.84 6.32c-3.71 2.82-9.3 5.57-12.11 6.71v2.91c-0.12 0.01-0.25 0.01-0.37 0.01" fill="#df9565"/></g>
  <g><path d="m235.77 334.68l-3.85-13.35 3.85 13.35m17.14-15.45l-0.15-1.16 0.15 1.16" fill="#804a2d"/></g>
  <g><path d="m249.22 357.78c-2.34 0-4.95-0.57-7.74-1.67l-0.34-0.13-5.94-20.65 1.13 0.18c1.64 0.26 3.3 0.39 4.94 0.4 5.76 0 10.37-1.64 13.23-3.02l0.91-0.44 2.78 20.89-0.13 0.21c-0.09 0.17-2.47 4.23-8.84 4.23" fill="#fff"/></g>
  <g><path d="m256 331.36l-1.82 0.87c-2.78 1.34-7.29 2.95-12.91 2.95-1.6 0-3.22-0.13-4.83-0.39l-2.26-0.36 0.63 2.2 5.54 19.21 0.2 0.68 0.66 0.27c2.88 1.14 5.57 1.71 8.01 1.71 6.79 0 9.37-4.41 9.48-4.59l0.24-0.43-0.06-0.48-2.62-19.65-0.26-1.99m-1.18 2.18l2.61 19.65s-2.19 3.86-8.21 3.86c-2.03 0-4.5-0.44-7.47-1.62l-5.54-19.2c1.77 0.28 3.45 0.4 5.06 0.4 5.79 0 10.46-1.6 13.55-3.09" fill="#3c2015"/></g>
  <g><path d="m245.76 356.66c-1.14-0.24-2.37-0.6-3.71-1.11h-0.01c0-0.01-0.01-0.01-0.02-0.01-0.09-0.04-0.18-0.07-0.27-0.11l-5.54-19.2c1.77 0.28 3.45 0.4 5.06 0.4 0.98 0 1.93-0.04 2.85-0.13 4.48-0.41 8.13-1.72 10.7-2.96l0.44 3.31c-2.06 1.96-5.65 4.44-11.09 5.13l1.59 14.68" fill="#bfdfdf"/></g>
  <g><path d="m242.05 355.55h-0.01 0.01m-0.03-0.01c-0.09-0.04-0.18-0.07-0.27-0.11l-5.54-19.2 5.54 19.2c0.09 0.04 0.18 0.07 0.27 0.11m2.1-19.04c4.48-0.41 8.13-1.72 10.7-2.96-2.57 1.24-6.22 2.55-10.7 2.96" fill="#3d3e37"/></g>
  <g><path d="m207.88 359.07c-5.17 0-7.53-3.1-7.63-3.23l-0.14-0.2 0.6-57.06 24.76 6.89-8.13 50.73-0.31 0.17c-3.29 1.79-6.37 2.7-9.15 2.7" fill="#f6b786"/></g>
  <g><path d="m199.99 297.62l-0.02 1.9-0.59 55.87v0.49l0.29 0.39c0.11 0.14 2.67 3.52 8.21 3.52 2.91 0 6.1-0.93 9.5-2.78l0.62-0.34 0.12-0.71 7.97-49.73 0.21-1.29-1.26-0.35-23.22-6.46-1.83-0.51m1.44 1.92l23.22 6.46-7.97 49.73c-3.58 1.95-6.49 2.61-8.8 2.61-4.86 0-7.04-2.93-7.04-2.93l0.59-55.87" fill="#3c2015"/></g>
  <g><path d="m214.32 335.61l-0.35-2.9c-2.93-0.78-8.8-2.84-12.83-5.19l0.09-9.52c6.06 1.51 13.2 2.8 20.98 3.24l-2.11 13.17-0.66 0.18c-1.69 0.49-3.4 0.83-5.12 1.02" fill="#df9565"/></g>
  <g><path d="m207.88 359.07c-5.17 0-7.53-3.1-7.63-3.23l-0.14-0.2 0.22-21.07 0.96 0.33c3.15 1.07 6.44 1.61 9.79 1.61 2.87 0 5.75-0.41 8.56-1.21l1.1-0.32-3.4 21.22-0.31 0.17c-3.29 1.79-6.37 2.7-9.15 2.7" fill="#fff"/></g>
  <g><path d="m199.61 333.56l-0.02 2.01-0.21 19.82v0.49l0.29 0.39c0.11 0.14 2.67 3.52 8.21 3.52 2.91 0 6.1-0.93 9.5-2.78l0.62-0.34 0.12-0.71 3.16-19.73 0.36-2.27-2.2 0.63c-2.75 0.79-5.56 1.2-8.36 1.2-3.27 0-6.49-0.54-9.56-1.58l-1.91-0.65m1.44 2.03c2.5 0.85 5.95 1.65 10.03 1.65 2.67 0 5.62-0.34 8.76-1.24l-3.16 19.73c-3.58 1.95-6.49 2.61-8.8 2.61-4.86 0-7.04-2.93-7.04-2.93l0.21-19.82" fill="#3c2015"/></g>
  <g><path d="m212.85 357.44l-0.21-14.77c-5.49-0.03-9.35-2.05-11.62-3.75l0.03-3.33c0.94 0.32 2.02 0.63 3.21 0.9 1.97 0.44 4.27 0.75 6.82 0.75 2.67 0 5.62-0.34 8.76-1.24l-3.16 19.73c-1.38 0.75-2.65 1.31-3.83 1.71" fill="#bfdfdf"/></g>
  <g><path d="m216.68 355.73l3.16-19.73-3.16 19.73m-5.6-18.49c-2.55 0-4.85-0.31-6.82-0.75 1.97 0.44 4.27 0.75 6.82 0.75 2.67 0 5.62-0.34 8.76-1.24-3.14 0.9-6.09 1.24-8.76 1.24" fill="#3d3e37"/></g>
  <g><path d="m227.96 320.91c-25.68 0-45.92-10.09-46.12-10.19-10.84-4.68-11.44-10.15-11.46-10.38l-0.04-0.44 0.43-0.09c4.51-0.96 9.34-8.93 9.91-9.9 1.05-14.95 7.03-29.35 7.09-29.5l0.12-0.3h73.46l0.14 0.18c5.64 6.73 7.67 24.07 7.76 24.81 2.96 9.53 9.29 19.29 9.35 19.39l0.26 0.39-0.38 0.28c-14.68 10.45-31.68 15.75-50.52 15.75" fill="#224d79"/></g>
  <g><path d="m261.57 259.62h-74l-0.26 0.61c-0.06 0.14-6.04 14.54-7.11 29.53-1.51 2.57-5.84 8.78-9.54 9.57l-0.85 0.18 0.08 0.87c0.02 0.24 0.64 5.99 11.75 10.8 0.9 0.44 20.98 10.23 46.32 10.23 18.95 0 36.04-5.34 50.8-15.85l0.77-0.55-0.51-0.79c-0.07-0.1-6.32-9.75-9.29-19.27-0.19-1.57-2.28-18.32-7.86-24.98l-0.3-0.35m-0.45 0.99c5.6 6.69 7.64 24.54 7.64 24.54 3.04 9.8 9.43 19.61 9.43 19.61-16.77 11.94-34.57 15.66-50.23 15.66-25.85 0-45.9-10.13-45.9-10.13-10.72-4.63-11.19-10-11.19-10 5.05-1.07 10.3-10.24 10.3-10.24 1.03-15.07 7.05-29.44 7.05-29.44h72.9" fill="#3c2015"/></g>
  <g><path d="m177.56 295.2c2.14-2.57 3.61-5.15 3.61-5.15 0.92-13.5 5.85-26.43 6.87-28.99 0.01 0.01 0.03 0.02 0.05 0.03-2.14 8.11-3.3 31.1-3.3 31.1l-7.23 3.01" fill="#557d9c"/></g>
  <g><path d="m177.55 295.21c2.14-2.58 3.62-5.16 3.62-5.16s-1.47 2.58-3.61 5.15l-0.01 0.01" fill="#70594d"/></g>
  <g><path d="m227.96 320.42c-11.12 0-21.17-1.87-29.01-4.01-9.26-2.53-15.44-5.42-16.67-6.02h-0.01l-0.06-0.03-0.14-0.07h-0.01c-10.72-4.63-11.19-10-11.19-10 0.04-0.01 0.08-0.02 0.13-0.03 1.09-0.26 2.18-0.89 3.23-1.71 9 5.15 25.74 13.06 43.84 13.06 6.73 0 13.66-1.1 20.44-3.84l-3.12-29.4s-32.75-3.4-41-11.69c0 0 3.06 0.4 8.18 0.71 6.43 2.07 14.49 3.78 23.54 3.78 12.45 0 24.5-3.17 35.84-9.44 4.92 7.27 6.76 23.04 6.81 23.41v0.01c3.04 9.8 9.43 19.61 9.43 19.61-5.54 3.94-11.18 6.99-16.83 9.3-6.13 2.51-12.25 4.15-18.23 5.14l-0.15 0.03h-0.02-0.03c-5.13 0.84-10.15 1.19-14.97 1.19" fill="#1d4365"/></g>
  <g><path d="m242.93 319.23h0.03-0.03m0.05 0m0.15-0.03c5.98-0.99 12.1-2.63 18.23-5.14-6.13 2.51-12.25 4.15-18.23 5.14m-44.18-2.79c-9.26-2.53-15.44-5.42-16.67-6.02 1.23 0.6 7.41 3.49 16.67 6.02m-16.68-6.02l-0.06-0.03 0.06 0.03m-0.2-0.1h-0.01c-10.72-4.63-11.19-10-11.19-10s0.47 5.37 11.19 10h0.01m96.12-5.53m-107.19-4.5c1.09-0.26 2.17-0.9 3.22-1.72 0 0.01 0.01 0.01 0.01 0.01-1.05 0.82-2.14 1.45-3.23 1.71m97.76-15.11m0-0.01" fill="#1f2e36"/></g>
  <g><path d="m141.42 152.42c-0.16 0-0.31-0.08-0.39-0.22-0.1-0.16-0.08-0.36 0.02-0.51 1.02-1.36 1.59-2.41 1.9-3.13-3.81 2.32-7.51 3.49-11.04 3.49-6.05 0-9.37-3.43-9.51-3.58-0.15-0.16-0.17-0.4-0.04-0.58 0.09-0.12 0.23-0.19 0.37-0.19l0.2 0.04c0.4 0.19 0.82 0.28 1.27 0.28 6.4 0 14.97-18.42 15.05-18.6 6.63-15.56 14.66-18.83 20.23-18.83 6.27 0 10.86 3.93 11.05 4.09l0.07 0.09 3.3 4.8 0.08 0.17c1.25 6.76 0.02 12.76-3.64 17.82-8.73 12.05-28.66 14.83-28.86 14.86h-0.06" fill="#eeac3d"/></g>
  <g><path d="m159.48 110.13c-5.71 0-13.93 3.32-20.65 19.12-2.34 5.08-9.56 18.32-14.63 18.32-0.38 0-0.74-0.08-1.08-0.24-0.12-0.06-0.26-0.09-0.39-0.09-0.28 0-0.56 0.14-0.74 0.38-0.25 0.36-0.22 0.85 0.08 1.17 0.14 0.15 3.59 3.71 9.84 3.71 3.19 0 6.51-0.93 9.91-2.76-0.29 0.49-0.66 1.05-1.13 1.68-0.22 0.29-0.24 0.69-0.06 1.01 0.17 0.28 0.47 0.45 0.79 0.45l0.12-0.01c0.83-0.11 20.32-2.84 29.17-15.04 3.74-5.17 4.99-11.28 3.72-18.17-0.03-0.12-0.08-0.25-0.15-0.35l-3.3-4.8-0.16-0.17c-0.19-0.17-4.9-4.21-11.34-4.21m0 0.91c6.17 0 10.75 3.99 10.75 3.99l3.3 4.8c5.04 27.17-32.11 32.13-32.11 32.13 2.19-2.93 2.37-4.47 2.37-4.47-4.68 3.1-8.67 4.1-11.88 4.1-5.93 0-9.18-3.43-9.18-3.43 0.48 0.22 0.97 0.32 1.47 0.32 6.77 0 15.47-18.87 15.47-18.87 6.3-14.81 13.81-18.57 19.81-18.57" fill="#3c2015"/></g>
  <g><path d="m124.28 149.38c21.58 5.13 29.1-15.65 29.1-15.65 2.26-13.21 18.08-16.91 18.08-16.91l2.07 3.01c5.04 27.17-32.11 32.13-32.11 32.13 2.19-2.93 2.37-4.47 2.37-4.47-9.86 6.52-16.64 3.77-19.51 1.89" fill="#cf8a25"/></g>
  <g><path d="m168.95 116.74c-0.04 0-3.78 0.07-8.28 2.4-4.49 2.32-9.74 6.93-12.74 15.91l0.43 0.15-0.42-0.17s-0.02 0.04-0.06 0.15c-0.33 0.76-1.94 4.3-5 7.62s-7.54 6.41-13.64 6.41c-1.73 0-3.59-0.25-5.6-0.81l-0.25 0.88c2.09 0.58 4.03 0.84 5.85 0.84 6.86 0 11.77-3.72 14.92-7.39 3.16-3.68 4.62-7.34 4.63-7.37l0.01-0.02c2.93-8.76 7.97-13.15 12.29-15.39 2.16-1.12 4.14-1.69 5.57-1.99 0.72-0.15 1.3-0.23 1.7-0.26 0.2-0.02 0.36-0.04 0.46-0.04 0.1-0.01 0.15-0.01 0.15-0.01l-0.02-0.91" fill="#3c2015"/></g>
  <g><path d="m168.41 114.75c-0.02 0-1.39-0.27-3.52-0.27-2.75 0-6.77 0.45-10.77 2.54s-7.96 5.83-10.54 12.31l-0.02 0.06s-0.02 0.07-0.05 0.21c-0.28 1.02-1.63 5.7-4.42 10.09-1.39 2.19-3.14 4.31-5.27 5.87-2.14 1.56-4.64 2.56-7.61 2.56-1.06 0-2.18-0.12-3.37-0.41l-0.21 0.89c1.25 0.3 2.44 0.44 3.58 0.44 3.39 0 6.25-1.24 8.59-3.08 3.52-2.76 5.91-6.84 7.45-10.23 1.53-3.39 2.19-6.1 2.2-6.12l-0.45-0.11 0.43 0.17c2.51-6.3 6.3-9.84 10.12-11.84s7.69-2.44 10.34-2.44c1.03 0 1.87 0.07 2.45 0.13 0.29 0.03 0.52 0.07 0.67 0.09l0.17 0.03 0.05 0.01 0.18-0.9" fill="#3c2015"/></g>
  <g><path d="m169.59 116.68s-0.04 0.09-0.1 0.28c-0.52 1.4-3.02 7.86-7.67 15.07-4.66 7.2-11.48 15.13-20.6 19.52l0.4 0.83c9.97-4.81 17.16-13.66 21.88-21.3 4.71-7.65 6.95-14.09 6.95-14.11l-0.86-0.29" fill="#3c2015"/></g>
  <g><path d="m172.33 121.74l-0.01 0.05c-0.03 0.59-0.51 5.98-4.61 12.23-4.09 6.25-11.8 13.39-26.41 17.51l0.25 0.88c15.27-4.31 23.23-11.94 27.33-18.52 4.1-6.57 4.35-12.05 4.36-12.11l-0.91-0.04" fill="#3c2015"/></g>
  <g><path d="m173.94 125.18c-4.29-0.9-6.8-9.59-6.9-9.96l-0.08-0.28 0.2-0.22c2.05-2.24 5.53-5.26 5.67-5.38l0.49-0.43 7.77 13.59-0.25 0.28c-1.16 1.32-6.13 2.29-6.7 2.4l-0.1 0.02-0.1-0.02" fill="#f25a96"/></g>
  <g><path d="m173.45 108.1l-0.96 0.84c-0.15 0.12-3.64 3.16-5.72 5.43l-0.39 0.43 0.16 0.56c0.27 0.96 2.77 9.39 7.29 10.33l0.21 0.04 0.2-0.04c1.33-0.25 5.77-1.17 6.99-2.56l0.5-0.57-0.37-0.65-7.27-12.7-0.64-1.11m-0.27 1.63l7.27 12.7c-1.08 1.23-6.4 2.23-6.4 2.23-4.03-0.84-6.5-9.58-6.5-9.58 2.06-2.25 5.63-5.35 5.63-5.35" fill="#3c2015"/></g>
  <g><path d="m174 111.86l0.49 0.17 5.96 10.4c-1.08 1.23-6.4 2.23-6.4 2.23-2.58-0.54-4.52-4.31-5.58-6.96l5.53-5.84" fill="#d04a84"/></g>
  <g><path d="m310.99 152.42c-0.2-0.03-20.13-2.81-28.86-14.86-3.67-5.06-4.89-11.06-3.64-17.82l0.08-0.17 3.3-4.8 0.07-0.09c0.19-0.16 4.78-4.09 11.05-4.09 5.57 0 13.6 3.27 20.23 18.84 0.08 0.17 8.65 18.59 15.05 18.59 0.44 0 0.87-0.09 1.27-0.28l0.19-0.04c0.15 0 0.29 0.07 0.38 0.19 0.12 0.18 0.1 0.42-0.04 0.58-0.14 0.15-3.46 3.58-9.52 3.58-3.52 0-7.23-1.17-11.04-3.49 0.32 0.72 0.89 1.77 1.9 3.13 0.11 0.15 0.13 0.35 0.03 0.51-0.08 0.14-0.23 0.22-0.39 0.22h-0.06" fill="#eeac3d"/></g>
  <g><path d="m292.99 110.13v0.91-0.91c-6.44 0-11.15 4.04-11.35 4.21l-0.15 0.17-3.3 4.8c-0.07 0.1-0.12 0.23-0.15 0.35-1.27 6.89-0.02 13 3.72 18.17 8.85 12.2 28.34 14.93 29.17 15.04l0.12 0.01c0.32 0 0.62-0.17 0.79-0.45 0.18-0.32 0.16-0.72-0.06-1.01-0.47-0.63-0.84-1.19-1.14-1.68 3.41 1.83 6.73 2.76 9.91 2.76 6.25 0 9.7-3.56 9.85-3.71 0.3-0.32 0.33-0.81 0.08-1.17-0.18-0.24-0.46-0.37-0.75-0.38-0.12 0-0.26 0.03-0.38 0.09-0.35 0.16-0.7 0.24-1.08 0.24-5.07 0-12.29-13.24-14.65-18.34-6.71-15.78-14.92-19.1-20.63-19.1zm0 0.91c6 0 13.51 3.76 19.81 18.57 0 0 8.7 18.87 15.47 18.87 0.5 0 0.99-0.1 1.46-0.32 0 0-3.25 3.43-9.18 3.43-3.2 0-7.19-1-11.87-4.1 0 0 0.18 1.54 2.37 4.47 0 0-37.15-4.96-32.11-32.13l3.3-4.8s4.58-3.99 10.75-3.99" fill="#3c2015"/></g>
  <g><path d="m328.19 149.38c-21.58 5.13-29.1-15.65-29.1-15.65-2.27-13.21-18.08-16.91-18.08-16.91l-2.07 3.01c-5.04 27.17 32.11 32.13 32.11 32.13-2.19-2.93-2.37-4.47-2.37-4.47 9.86 6.52 16.64 3.77 19.51 1.89" fill="#cf8a25"/></g>
  <g><path d="m283.5 117.65s0.05 0 0.15 0.01c0.77 0.04 4.42 0.38 8.55 2.73 4.12 2.37 8.73 6.74 11.47 14.95l0.01 0.02c0.01 0.03 1.46 3.69 4.62 7.37 3.16 3.67 8.07 7.39 14.93 7.39 1.82 0 3.76-0.26 5.84-0.84l-0.24-0.88c-2.01 0.56-3.87 0.81-5.6 0.81-6.51 0-11.17-3.51-14.23-7.08-1.53-1.77-2.65-3.56-3.39-4.9-0.37-0.66-0.64-1.22-0.82-1.61-0.09-0.19-0.16-0.34-0.2-0.44-0.04-0.11-0.06-0.15-0.06-0.15l-0.43 0.17 0.44-0.15c-3-8.98-8.25-13.59-12.74-15.91-4.5-2.33-8.24-2.4-8.28-2.4l-0.02 0.91" fill="#3c2015"/></g>
  <g><path d="m284.23 115.65l0.06-0.01c0.26-0.05 1.49-0.25 3.28-0.25 2.66 0 6.53 0.44 10.35 2.44s7.6 5.54 10.12 11.84l0.42-0.17-0.44 0.11c0.01 0.03 1.18 4.83 4.03 9.66 1.42 2.42 3.27 4.85 5.61 6.69 2.35 1.84 5.21 3.08 8.6 3.08 1.13 0 2.33-0.14 3.58-0.44l-0.21-0.89c-1.19 0.29-2.31 0.41-3.37 0.41-3.17 0-5.81-1.14-8.03-2.88-3.34-2.61-5.68-6.57-7.18-9.89-0.75-1.66-1.28-3.15-1.64-4.23-0.17-0.54-0.3-0.97-0.38-1.27s-0.12-0.46-0.12-0.46l-0.02-0.06c-2.59-6.48-6.55-10.22-10.55-12.31s-8.02-2.54-10.77-2.54c-2.12 0-3.49 0.27-3.52 0.27l0.18 0.9" fill="#3c2015"/></g>
  <g><path d="m282.02 116.97c0 0.02 2.24 6.46 6.95 14.11 4.72 7.64 11.91 16.49 21.88 21.3l0.4-0.83c-9.73-4.67-16.84-13.39-21.5-20.95-2.33-3.78-4.05-7.26-5.19-9.8-0.56-1.28-0.99-2.31-1.27-3.02-0.14-0.36-0.24-0.64-0.31-0.82-0.07-0.19-0.1-0.28-0.1-0.28l-0.86 0.29" fill="#3c2015"/></g>
  <g><path d="m279.23 121.78c0 0.06 0.26 5.54 4.36 12.11 4.1 6.58 12.06 14.21 27.34 18.52l0.24-0.88c-15.08-4.26-22.81-11.73-26.8-18.12-2-3.19-3.05-6.12-3.61-8.25-0.28-1.06-0.44-1.92-0.52-2.52-0.04-0.29-0.07-0.52-0.08-0.68l-0.02-0.17v-0.05l-0.91 0.04" fill="#3c2015"/></g>
  <g><path d="m278.32 125.18c-0.56-0.11-5.53-1.07-6.7-2.4l-0.24-0.28 7.77-13.59 0.49 0.43c0.14 0.12 3.61 3.14 5.67 5.38l0.19 0.22-0.07 0.28c-0.11 0.37-2.61 9.06-6.9 9.96l-0.1 0.02-0.11-0.02" fill="#f25a96"/></g>
  <g><path d="m279.01 108.1l-0.63 1.11-7.27 12.7-0.38 0.65 0.5 0.57c1.23 1.39 5.66 2.31 7 2.56l0.2 0.04 0.21-0.04c4.52-0.94 7.02-9.37 7.29-10.33l0.16-0.56-0.39-0.43c-2.08-2.27-5.57-5.31-5.72-5.43l-0.97-0.84m0.28 1.63s3.57 3.1 5.63 5.35c0 0-2.47 8.74-6.5 9.58 0 0-5.32-1-6.4-2.23l7.27-12.7" fill="#3c2015"/></g>
  <g><path d="m278.47 111.86l-0.49 0.17-5.96 10.4c1.08 1.23 6.4 2.23 6.4 2.23 2.58-0.54 4.52-4.31 5.58-6.96l-5.53-5.84" fill="#d04a84"/></g>
  <g><path d="m179.32 131.83l-0.18-0.45c-13.5-34.396-14.43-60.509-2.77-77.614 13.36-19.594 38.62-20.59 43.55-20.59 0.36 0 0.56 0.008 0.56 0.008 2.4-0.188 4.83-0.282 7.16-0.282 18.59 0 32.4 6.012 41.02 17.871 21.46 29.516 3.47 86.117 3.29 86.687l-0.18 0.56-92.45-6.19" fill="#eeac3d"/></g>
  <g><path d="m227.64 32.148c-2.32 0-4.75 0.094-7.23 0.278-0.09 0-0.25-0.004-0.49-0.004-4.99 0-30.6 1.008-44.17 20.918-11.81 17.324-10.91 43.676 2.7 78.32l0.34 0.89 0.96 0.06 91.38 6.12 1.17 0.08 0.36-1.11c0.05-0.15 4.65-14.48 6.54-32.24 1.75-16.511 1.45-39.48-9.93-55.132-8.77-12.062-22.78-18.18-41.63-18.18m0 1.508c77.16 0 43.59 103.57 43.59 103.57l-91.38-6.12c-37.26-94.907 33.22-97.18 40.07-97.18 0.35 0 0.53 0.008 0.53 0.008 2.5-0.192 4.89-0.282 7.19-0.282" fill="#3c2015"/></g>
  <g><path d="m178.16 98.527l-0.02-0.058c-0.06-0.258-6.34-26.305 7.07-43.461 7.83-10.004 20.67-15.078 38.18-15.078 0.37 0 0.73 0 1.11 0.008 1.03 0 25.57 0.195 39.22 17.304 8.8 11.035 11 26.539 6.54 46.078l-0.12 0.52-86.05 8.43-5.93-13.743" fill="#f25a96"/></g>
  <g><path d="m223.4 39.191v1.473-1.473h-0.01c-17.75 0-30.79 5.168-38.76 15.364-13.63 17.437-7.47 43.011-7.2 44.093l0.03 0.118 0.04 0.113 5.7 13.181 0.43 0.99 1.07-0.1 84.99-8.32 1.06-0.1 0.23-1.04c4.51-19.775 2.27-35.49-6.68-46.709-13.87-17.383-38.76-17.582-39.81-17.582-0.36-0.004-0.72-0.008-1.09-0.008m-0.01 1.473c0.37 0 0.73 0.004 1.1 0.008 0.62 0 59.28 0.164 45.05 62.488l-84.99 8.32-5.69-13.187s-14.34-57.625 44.53-57.629" fill="#3c2015"/></g>
  <g><path d="m187.28 53.688c2.31-2.563 5.11-4.883 8.53-6.833 0.01-0.003 0.02-0.011 0.03-0.015 0.03-0.02 0.06-0.035 0.09-0.051v-0.004c0.01-0.004 0.02-0.008 0.02-0.012l0.01-0.003c0-0.004 0.01-0.008 0.02-0.012v-0.004c0.02-0.012 0.04-0.02 0.06-0.031 0.01 0 0.01-0.004 0.01-0.004 0-0.004 0.01-0.008 0.02-0.012 0-0.004 0-0.004 0.01-0.004 0.01-0.004 0.01-0.008 0.02-0.012l0.01-0.003c0-0.004 0.01-0.008 0.02-0.012 0-0.004 0-0.004 0.01-0.004 0-0.008 0.01-0.012 0.02-0.016 0-0.004 0.01-0.004 0.01-0.008 0.01 0 0.01-0.003 0.02-0.007 0 0 0.01-0.004 0.01-0.008 0.01 0 0.01-0.004 0.01-0.008 0.01-0.004 0.02-0.004 0.02-0.008l0.01-0.004c0.01-0.004 0.01-0.008 0.02-0.011 0.01-0.008 0.03-0.016 0.04-0.024l0.01-0.004c0-0.004 0.01-0.004 0.01-0.008 0.01-0.004 0.01-0.004 0.02-0.004 0-0.003 0.01-0.007 0.01-0.011 0.01 0 0.01-0.004 0.01-0.004 0.03-0.016 0.06-0.035 0.09-0.051 0.01-0.008 0.02-0.008 0.03-0.012v-0.004c1.43-0.777 2.96-1.492 4.59-2.132h0.01l0.03-0.012c0.03-0.012 0.05-0.024 0.08-0.031l0.02-0.008c0-0.004 0.01-0.004 0.01-0.004 0.01-0.004 0.01-0.008 0.02-0.012h0.01c0.04-0.015 0.07-0.027 0.1-0.039l0.01-0.004 0.02-0.008 0.01-0.003 0.02-0.008c0.01-0.004 0.02-0.004 0.02-0.008 0 0 0.01-0.004 0.02-0.004 0-0.004 0.01-0.008 0.02-0.012 0.01 0 0.01-0.004 0.02-0.007 0.01 0 0.01-0.004 0.02-0.004 0-0.004 0.01-0.004 0.01-0.008 0.01 0 0.01-0.004 0.02-0.004 0-0.004 0.01-0.004 0.01-0.008 0.01 0 0.02-0.004 0.02-0.008 0.01 0 0.01 0 0.02-0.004s0.02-0.007 0.03-0.011l0.03-0.012h0.01c0-0.008 0.02-0.008 0.02-0.012l0.01-0.004 0.02-0.008c0.01-0.003 0.01-0.003 0.02-0.003 0-0.004 0.02-0.008 0.03-0.012s0.02-0.012 0.03-0.016l0.03-0.012h0.01c0.01-0.003 0.02-0.007 0.03-0.011v-0.004c5.78-2.133 12.86-3.383 21.53-3.383 0.33 0 0.66 0.004 0.99 0.008h0.01 0.04 0.06 0.02 0.01c0.66 0.004 13.57 0.14 25.71 6.551-8.58-1.758-16.43-2.493-23.55-2.493-17.46 0-30.55 4.415-39.4 8.958" fill="#f394bb"/></g>
  <g><path d="m195.81 46.855m0.03-0.015m0.09-0.051v-0.004 0.004m0.02-0.016l0.01-0.003-0.01 0.003m0.03-0.015v-0.004 0.004m0.06-0.035c0.01 0 0.01-0.004 0.01-0.004s0 0.004-0.01 0.004m0.03-0.016c0-0.004 0-0.004 0.01-0.004-0.01 0-0.01 0-0.01 0.004m0.03-0.016l0.01-0.003-0.01 0.003m0.03-0.015c0-0.004 0-0.004 0.01-0.004-0.01 0-0.01 0-0.01 0.004m0.03-0.02c0-0.004 0.01-0.004 0.01-0.008 0 0.004-0.01 0.004-0.01 0.008m0.03-0.015s0.01-0.004 0.01-0.008c0 0.004-0.01 0.008-0.01 0.008m0.02-0.016c0.01-0.004 0.02-0.004 0.02-0.008 0 0.004-0.01 0.004-0.02 0.008m0.03-0.012c0.01-0.004 0.01-0.008 0.02-0.011-0.01 0.003-0.01 0.007-0.02 0.011m0.02-0.011c0.01-0.008 0.03-0.016 0.04-0.024-0.01 0.008-0.03 0.016-0.04 0.024m0.05-0.028c0-0.004 0.01-0.008 0.01-0.008 0 0.004-0.01 0.004-0.01 0.008m0.03-0.012c0-0.003 0.01-0.007 0.01-0.011 0 0.004-0.01 0.008-0.01 0.011m0.02-0.015c0.03-0.016 0.06-0.031 0.09-0.051-0.03 0.016-0.06 0.035-0.09 0.051m0.09-0.051l0.03-0.012c-0.01 0.004-0.02 0.004-0.03 0.012m0.03-0.016c1.43-0.777 2.96-1.492 4.59-2.132-1.63 0.64-3.16 1.355-4.59 2.132m4.6-2.132l0.03-0.012-0.03 0.012m0.03-0.012c0.03-0.012 0.05-0.024 0.08-0.031-0.03 0.007-0.05 0.019-0.08 0.031m0.08-0.031l0.02-0.008-0.02 0.008m0.03-0.012c0.01-0.004 0.02-0.008 0.02-0.012-0.01 0.004-0.01 0.008-0.02 0.012m0.03-0.012c0.04-0.011 0.07-0.027 0.1-0.039-0.03 0.012-0.06 0.024-0.1 0.039m0.11-0.043l0.02-0.008-0.02 0.008m0.03-0.011l0.02-0.008-0.02 0.008m0.04-0.016s0.01-0.004 0.02-0.004c-0.01 0-0.02 0.004-0.02 0.004m0.04-0.016c0.01 0 0.01-0.004 0.02-0.007-0.01 0.003-0.01 0.007-0.02 0.007m0.04-0.011c0-0.004 0.01-0.004 0.01-0.008 0 0.004-0.01 0.004-0.01 0.008m0.03-0.012c0-0.004 0.01-0.004 0.01-0.008 0 0.004-0.01 0.004-0.01 0.008m0.03-0.016c0.01 0 0.01 0 0.02-0.004-0.01 0.004-0.01 0.004-0.02 0.004m0.05-0.015m0.03-0.012h0.01-0.01m0.03-0.012l0.01-0.004-0.01 0.004m0.03-0.012c0.01-0.003 0.01-0.003 0.02-0.003-0.01 0-0.01 0-0.02 0.003m0.05-0.015m0.03-0.016m0.03-0.012h0.01-0.01m0.04-0.011v-0.004 0.004m22.66-3.379h-0.01 0.01m-0.03 0h-0.06 0.06m-0.1 0h-0.01 0.01" fill="#a27d7f"/></g>
  <g><path d="m228.44 260.23c-25.52 0-45.75-11.67-45.96-11.79l-0.12-0.07-0.06-0.12c-7.01-13.21-0.44-44.52 0.08-46.96-4.58-20.64 5.65-37.87 5.76-38.04l0.08-0.14 0.14-0.06c13.23-5.72 26.19-8.62 38.52-8.62 25.17 0 39.44 12.23 39.58 12.35 9.82 11.56 4.01 37.52 3.41 40.04 7.22 16.8-0.94 41.76-1.02 42.01l-0.06 0.17-0.15 0.09c-12.1 7.39-25.62 11.14-40.19 11.14h-0.01" fill="#f47c37"/></g>
  <g><path d="m226.88 153.93c-12.4 0-25.42 2.92-38.71 8.67l-0.29 0.13-0.17 0.27c-0.42 0.7-10.4 17.51-5.83 38.29-0.67 3.14-7.02 33.99-0.02 47.19l0.14 0.24 0.23 0.14c0.21 0.12 20.56 11.86 46.21 11.86 14.67 0 28.28-3.77 40.45-11.21l0.31-0.19 0.12-0.34c0.34-1.03 8.25-25.25 1.07-42.2 0.77-3.33 6.24-28.78-3.5-40.26l-0.05-0.06-0.05-0.05c-0.59-0.51-14.56-12.48-39.91-12.48m0 0.99c25.28 0 39.26 12.23 39.26 12.23 10 11.8 3.22 39.72 3.22 39.72 7.34 16.81-0.98 41.8-0.98 41.8-13.56 8.28-27.42 11.06-39.94 11.06-25.69 0-45.71-11.71-45.71-11.71-7.14-13.46 0.16-46.73 0.16-46.73-4.65-20.74 5.67-37.79 5.67-37.79 14.69-6.36 27.53-8.58 38.32-8.58" fill="#3c2015"/></g>
  <g><path d="m266.14 167.15s-28.46-24.91-77.58-3.65c0 0-8.46 13.98-6.61 32.02 15.38-13.78 50.98-39.05 75.21-4.41l-0.74 63.49c3.99-1.55 7.99-3.5 11.96-5.93 0 0 8.32-24.99 0.98-41.8 0 0 6.78-27.92-3.22-39.72" fill="#f0572f"/></g>
  <g><path d="m182.73 248.02l3.74-4.23 0.04-0.06 0.08 0.02c3.26 0.69 6.55 1.25 9.84 1.8 3.3 0.54 6.6 1 9.91 1.4 6.62 0.84 13.27 1.42 19.93 1.62 1.67 0.07 3.33 0.09 5 0.11 1.66 0 3.33 0.01 4.99-0.06 1.67-0.04 3.33-0.14 4.99-0.24 1.66-0.14 3.32-0.27 4.97-0.47 1.66-0.16 3.3-0.43 4.95-0.67 1.63-0.31 3.27-0.6 4.88-1.01 0.82-0.18 1.62-0.4 2.42-0.64 0.8-0.23 1.61-0.43 2.39-0.71s1.59-0.51 2.36-0.83l2.31-0.94 0.07-0.02 0.04 0.04 2.74 3.11-2.88-2.98 0.11 0.02-2.29 1.04c-0.76 0.34-1.56 0.61-2.34 0.91-0.78 0.32-1.58 0.55-2.38 0.81s-1.6 0.5-2.42 0.69c-1.61 0.46-3.26 0.79-4.9 1.13-1.65 0.29-3.3 0.6-4.97 0.8-1.66 0.25-3.33 0.37-5 0.53-1.67 0.11-3.34 0.23-5.02 0.28-1.67 0.08-3.35 0.08-5.02 0.1-1.68 0-3.36-0.02-5.03-0.07-6.69-0.24-13.37-0.88-20-1.77-6.62-0.97-13.22-2.12-19.71-3.75l0.11-0.03-3.91 4.07" fill="#3c2015"/></g>
  <g><path d="m226.11 270.71c-22.61 0-38.96-10.71-39.13-10.82l-0.07-0.05-0.05-0.07c-4.99-7.2 1.25-28.38 1.85-30.38-4.18-17.31 2.55-63.02 2.61-63.48l0.06-0.34 23.75-3.32 45.01 3.3 0.05 0.36c5.66 36.16 1.06 59.34 0.67 61.2 4.93 16.73 3.59 32.29 3.57 32.44l-0.02 0.24-0.2 0.11c-12 7.18-24.81 10.81-38.1 10.81" fill="#fff"/></g>
  <g><path d="m215.16 161.78l-0.09 0.02-23.42 3.27-0.67 0.1-0.1 0.67c-0.29 1.89-6.78 46.06-2.65 63.54-0.78 2.62-6.77 23.41-1.74 30.65l0.1 0.15 0.14 0.09c0.17 0.11 16.63 10.9 39.38 10.9 13.37 0 26.27-3.66 38.34-10.87l0.39-0.24 0.04-0.47c0.02-0.15 1.37-15.73-3.55-32.5 0.53-2.57 4.88-25.65-0.69-61.25l-0.11-0.72-0.72-0.05-44.55-3.28-0.1-0.01m0.03 0.92l44.55 3.28c5.93 37.88 0.65 61.14 0.65 61.14 5 16.88 3.59 32.39 3.59 32.39-13.48 8.06-26.5 10.75-37.87 10.75-22.73 0-38.87-10.75-38.87-10.75-5.07-7.3 1.94-30.1 1.94-30.1-4.27-17.34 2.6-63.43 2.6-63.43l23.41-3.28" fill="#3c2015"/></g>
  <g><path d="m226.11 270.26c-22.73 0-38.87-10.75-38.87-10.75-0.7-1.01-1.17-2.34-1.46-3.85 7.15 1.94 18.84 4.48 31.24 4.48 1.49 0 3-0.04 4.5-0.12 1.43 2.36 3.04 4.51 4.77 6.02l0.8 0.69 0.64-0.85c0.44-0.6 10.88-14.73 11.89-21.46l0.02-0.14-0.02-0.14c-0.46-3.28-3.93-27.64-6.04-37.65 2.59-2.65 7.44-8.87 7.72-18.58 2-1.14 3.39-2 3.54-2.09l0.93-0.57-0.68-0.87-3.4-4.34 6.39-5.33c0.29 0.84 0.58 1.67 0.86 2.49l-3.96 3.85 1.88 5.97-3.72 3.14c-0.76 9.86-6.14 17-6.14 17l5.55 40.4-6.29 10.1c6.7-1.92 13-5.1 18.24-10.1 0 0 0.82-14.13-3.45-21.02 0 0 2.07-14.39 3.45-29.97 4.12 17.49 4.38 28.83 4.38 29v0.14l0.05 0.14 3.99 12.56c1.01 6.32 1.24 11.88 1.24 15.7 0 3.38-0.18 5.4-0.18 5.4-6.33 3.79-12.55 6.38-18.56 8.08-6.78 1.91-13.28 2.67-19.31 2.67m34.84-95.57c-1.41-3.98-2.72-7.03-3.57-8.89l2.35 0.18 0.1 0.72 1.1 7.83c0 0.06 0.01 0.1 0.02 0.16" fill="#bfdfdf"/></g>
  <g><path d="m226.11 270.26c-22.73 0-38.87-10.75-38.87-10.75s16.14 10.75 38.87 10.75c6.03 0 12.53-0.76 19.31-2.67-6.78 1.91-13.28 2.67-19.31 2.67m37.87-10.75s0.18-2.02 0.18-5.4c0 3.38-0.18 5.4-0.18 5.4" fill="#3d3e37"/></g>
  <g><path d="m278.31 224.25c-3.5 0-6.88-1.01-10.05-3.01l-0.22-0.14-7.75-55.15 0.68 0.02c0.6 0.03 14.74 0.94 29.59 28.66 0.76 0.93 10.14 12.43 10.64 16.12l0.03 0.24-0.14 0.19c-0.41 0.53-10.3 13.07-22.78 13.07" fill="#fff"/></g>
  <g><path d="m259.64 165.35l0.19 1.35 7.61 54.22 0.07 0.52 0.45 0.28c3.26 2.06 6.75 3.1 10.35 3.1 12.75 0 22.8-12.75 23.23-13.3l0.29-0.37-0.06-0.47c-0.53-3.79-9.4-14.73-10.74-16.36-14.99-27.96-29.43-28.89-30.03-28.91l-1.36-0.06m1.31 1.19s14.26 0.6 29.14 28.41c0 0 10.05 12.23 10.55 15.88 0 0-9.99 12.86-22.33 12.86-3.14 0-6.43-0.83-9.75-2.93l-7.61-54.22" fill="#3c2015"/></g>
  <g><path d="m278.31 223.69c-2.79 0-5.71-0.66-8.67-2.29-0.36-0.2-0.72-0.41-1.08-0.64l-0.66-4.72c0.18-11.58-1.54-21.89-3.46-29.65-0.47-1.91-0.96-3.74-1.47-5.45l-1.22-8.7c3.63 7.6 12.66 27.12 16.26 40.23 0 0 2.69 2.33 9.37 2.32 2.96 0 6.69-0.45 11.32-1.75-1.19 1.26-2.9 2.91-5 4.53v0.01c-4 3.1-9.42 6.11-15.39 6.11" fill="#bfdfdf"/></g>
  <g><path d="m278.32 223.69c-2.8 0-5.72-0.66-8.68-2.29 2.96 1.63 5.88 2.29 8.67 2.29 5.97 0 11.39-3.01 15.39-6.11-4 3.1-9.42 6.11-15.38 6.11m-9.76-2.93m25.14-3.18v-0.01 0.01" fill="#3d3e37"/></g>
  <g><path d="m259.38 225.63l-0.01-0.07c0-0.26-0.6-26.65-14.69-61.17l-0.15-0.37 0.33-0.23c0.08-0.06 2.05-1.37 5.24-1.37 1.86 0 3.75 0.45 5.62 1.33l0.15 0.07 0.08 0.15c0.18 0.35 18.41 35.64 8.52 74.68l-0.42 1.67-4.67-14.69" fill="#f47c37"/></g>
  <g><path d="m250.1 161.93c-3.34 0-5.43 1.39-5.51 1.46l-0.66 0.45 0.3 0.73c14.06 34.45 14.65 60.74 14.65 61v0.14l0.05 0.14 4.12 12.98 1.05 3.28 0.85-3.34c5.19-20.5 2.59-39.8-0.51-52.38-3.35-13.63-8.01-22.56-8.06-22.65l-0.15-0.29-0.3-0.14c-1.94-0.92-3.9-1.38-5.83-1.38m0 0.98c1.54 0 3.37 0.32 5.41 1.29 0 0 18.44 35.02 8.48 74.33l-4.13-12.98s-0.43-26.33-14.72-61.35c0 0 1.88-1.29 4.96-1.29" fill="#3c2015"/></g>
  <g><path d="m226.61 265.66c-6.43-5.61-11.14-20.29-11.34-20.91l-0.03-0.09 0.01-0.09c1.11-19.25 9.3-41.63 9.39-41.85l0.11-0.32h7.16l0.14 0.26c1.61 3 6.86 39.97 7.08 41.54l0.01 0.07-0.01 0.08c-0.99 6.61-11.36 20.64-11.8 21.24l-0.31 0.43-0.41-0.36" fill="#598dce"/></g>
  <g><path d="m232.21 201.9h-7.8l-0.23 0.65c-0.09 0.22-8.3 22.67-9.42 41.99l-0.01 0.19 0.05 0.17c0.2 0.63 4.95 15.44 11.49 21.14l0.8 0.69 0.64-0.85c0.44-0.6 10.88-14.73 11.89-21.46l0.02-0.14-0.02-0.14c-0.56-3.96-5.51-38.69-7.14-41.72l-0.27-0.52m-0.59 0.99c1.59 2.96 7.02 41.38 7.02 41.38-0.98 6.57-11.7 21.02-11.7 21.02-6.41-5.58-11.2-20.69-11.2-20.69 1.12-19.4 9.36-41.71 9.36-41.71h6.52" fill="#3c2015"/></g>
  <g><path d="m231.62 202.89h-6.52s-1.5 4.07-3.31 10.24l2.07-1.72 6.56 3.45s5.59 23.97 5.42 29.39c0 0-8.97 10.11-13.59 15.06 1.41 2.36 2.99 4.51 4.69 5.98 0 0 10.72-14.45 11.7-21.02 0 0-5.43-38.42-7.02-41.38" fill="#4079ba"/></g>
  <g><path d="m224.75 207.65l-0.11-0.06c-9.79-5.32-10.68-19.93-10.71-20.54l-0.02-0.52h26.91v0.49c0 13.33-9.03 20.46-9.12 20.53l-0.13 0.1h-6.82" fill="#598dce"/></g>
  <g><path d="m241.31 186.04h-27.92l0.05 1.03c0.04 0.63 0.94 15.5 10.97 20.95l0.22 0.12h7.1l0.27-0.2c0.38-0.3 9.31-7.35 9.31-20.92v-0.98m-0.99 0.98c0 13.24-8.92 20.14-8.92 20.14h-6.52c-9.66-5.26-10.45-20.14-10.45-20.14h25.89" fill="#3c2015"/></g>
  <g><path d="m214.43 187.02s0.1 1.87 0.66 4.52c5.05 3.53 13.23 8.97 17.47 10.34 0 0-0.92 3-2.4 5.28h1.24s8.92-6.9 8.92-20.14h-25.89" fill="#4079ba"/></g>
  <g><path d="m226.87 160.39l16.55-0.4 0.14 0.25c0.19 0.31 4.64 7.75 6.36 11.85l0.14 0.33-9.05 7.55 4.03 5.15-0.47 0.29c-0.4 0.25-9.94 6.15-16.3 7.95l-0.61 0.18-0.79-33.15" fill="#fff"/></g>
  <g><path d="m243.69 159.49l-0.57 0.02-15.77 0.38-0.99 0.02 0.03 0.99 0.76 32.01 0.03 1.27 1.23-0.34c6.42-1.83 16.02-7.77 16.43-8.02l0.93-0.57-0.68-0.87-3.4-4.34 8.4-7.01 0.56-0.46-0.28-0.68c-1.73-4.12-6.19-11.59-6.38-11.9l-0.3-0.5m-0.55 1s4.59 7.68 6.32 11.79l-9.14 7.61 3.99 5.1s-9.81 6.09-16.17 7.9l-0.76-32.01 15.76-0.39" fill="#3c2015"/></g>
  <g><path d="m243.14 185.7l-5-5.17 7-8.21c-0.52-0.11-1.11-0.16-1.75-0.16-2 0-4.42 0.46-6.17 0.86 0.49-2.59 0.95-5.49 1.35-8.75 1.75-1.04 2.84-2.04 3.3-2.49 0.6-0.12 1.2-0.25 1.8-0.4 1.26 2.15 4.42 7.64 5.79 10.9l-9.14 7.61 3.99 5.1s-0.44 0.27-1.17 0.71" fill="#bfdfdf"/></g>
  <g><path d="m227.01 193.36c-6.36-1.8-15.9-7.7-16.3-7.95l-0.47-0.29 4.03-5.15-9.05-7.55 0.14-0.33c1.73-4.1 6.17-11.54 6.36-11.85l0.14-0.25 16.55 0.4-0.79 33.15-0.61-0.18" fill="#fff"/></g>
  <g><path d="m211.59 159.49l-0.3 0.5c-0.18 0.31-4.65 7.78-6.38 11.9l-0.28 0.68 0.56 0.46 8.4 7.01-3.4 4.34-0.67 0.87 0.93 0.57c0.4 0.25 10 6.19 16.43 8.02l1.22 0.34 0.03-1.27 0.76-32.01 0.02-0.99-0.98-0.02-15.77-0.38-0.57-0.02m0.55 1l15.77 0.39-0.77 32.01c-6.36-1.81-16.17-7.9-16.17-7.9l3.99-5.1-9.14-7.61c1.73-4.11 6.32-11.79 6.32-11.79" fill="#3c2015"/></g>
  <g><path d="m227.08 193.75c-10.51-7.93-10.71-32.88-10.71-33.94v-0.48l22.31-0.58-0.06 0.55c-3.07 31.49-10.76 34.42-11.09 34.53l-0.24 0.08-0.21-0.16" fill="#f6b786"/></g>
  <g><path d="m239.23 158.24l-1.12 0.03-21.27 0.55-0.96 0.03v0.96c0 1.07 0.21 26.25 10.9 34.34l0.42 0.31 0.49-0.16c0.85-0.29 8.37-3.69 11.43-34.95l0.11-1.11m-1.09 1.01c-3.09 31.53-10.76 34.11-10.76 34.11-10.43-7.88-10.52-33.55-10.52-33.55l21.28-0.56" fill="#3c2015"/></g>
  <g><path d="m227.38 193.36l-0.06-0.05c3.61-6.27 5.24-19.67 5.24-19.67h-0.62c-5.57 0-10.97-2.54-14.42-4.59-0.13-1.12-0.24-2.19-0.33-3.17 2.01 0.94 4.81 1.64 8.67 1.64 0.44 0 0.9 0 1.37-0.02 4.41-0.18 7.83-1.37 10.27-2.64-3.38 26.24-10.12 28.5-10.12 28.5" fill="#df9565"/></g>
  <g><path d="m179.3 115.53c-4.89 0-9.23-4.2-10.32-9.98-1.2-6.429 2.16-12.468 7.49-13.464 0.5-0.094 1.01-0.141 1.52-0.141 4.9 0 9.24 4.2 10.32 9.985 0.58 3.1 0.13 6.2-1.27 8.73-1.41 2.57-3.61 4.24-6.21 4.73-0.51 0.09-1.02 0.14-1.53 0.14" fill="#f6b786"/></g>
  <g><path d="m177.99 91.52c-0.54 0-1.07 0.05-1.6 0.148-5.56 1.039-9.07 7.301-7.83 13.952 1.12 5.99 5.64 10.34 10.74 10.34 0.54 0 1.08-0.05 1.61-0.15 2.72-0.51 5.03-2.27 6.51-4.94 1.44-2.62 1.91-5.82 1.31-9.02-1.12-5.987-5.64-10.33-10.74-10.33m0 0.851c4.59 0 8.85 4.02 9.9 9.639 1.16 6.2-2.03 12.01-7.14 12.96-0.48 0.09-0.96 0.14-1.45 0.14-4.58 0-8.85-4.02-9.9-9.64-1.16-6.204 2.04-12.009 7.15-12.966 0.48-0.09 0.96-0.133 1.44-0.133" fill="#3c2015"/></g>
  <g><path d="m180.47 113.14c-0.86-0.15-1.67-0.44-2.42-0.83 0.04 0.01 0.07 0.03 0.11 0.05 0.23 0.09 0.48 0.19 0.75 0.31 0.29 0.07 0.62 0.13 0.97 0.2 0.16 0.03 0.31 0.04 0.46 0.04 0.07 0 0.14-0.01 0.21-0.01-0.03 0.08-0.05 0.17-0.08 0.24" fill="#df9565"/></g>
  <g><path d="m179.94 112.22c-0.03 0-0.05-0.01-0.08-0.01-0.3-0.01-0.58-0.02-0.84-0.02-0.27-0.06-0.52-0.11-0.74-0.15-0.46-0.07-0.78-0.27-1.02-0.34-0.24-0.09-0.37-0.15-0.37-0.15s0.11 0.08 0.32 0.23c0.12 0.06 0.25 0.18 0.42 0.3-2.48-1.49-4.15-4.22-4.15-7.33 0-2.65 1.14-5.312 2.85-6.688 0.21-0.117 0.42-0.226 0.63-0.328 0.64-0.261 1.33-0.41 2.09-0.41 0.07 0 0.14 0.004 0.21 0.004 0.61 0.031 1.27 0.199 1.9 0.481 0.36 0.218 0.72 0.421 1.07 0.613 0.26 0.191 0.51 0.406 0.75 0.644l-0.44 2.504c-0.95 0.98-1.88 2.35-1.88 4.02 0 0.8 0.22 1.64 0.73 2.49l-0.14 0.79-0.52 2.94 0.25-0.12c-0.05 0.13-0.09 0.26-0.14 0.4-0.31 0.04-0.63 0.13-0.9 0.13m1.71-5.64c-0.1-0.34-0.14-0.67-0.14-0.99 0-0.82 0.29-1.58 0.71-2.26l-0.57 3.25" fill="#df9565"/></g>
  <g><path d="m173.48 101.39s0.04-0.13 0.09-0.38c0.06-0.25 0.14-0.61 0.34-1.053 0.08-0.23 0.2-0.473 0.35-0.727 0.13-0.265 0.31-0.531 0.52-0.8 0.4-0.563 0.99-1.102 1.74-1.563 0.74-0.445 1.71-0.762 2.7-0.805 1.07-0.046 2.15 0.172 3.16 0.684 2.03 0.988 3.56 2.996 4.28 5.214 0.19 0.55 0.31 1.12 0.39 1.7 0.07 0.49 0.12 1.18 0.09 1.73-0.02 1.15-0.29 2.27-0.71 3.28-0.42 1.02-1.05 1.91-1.79 2.6-0.73 0.7-1.6 1.18-2.45 1.42-0.2 0.08-0.42 0.11-0.62 0.15l-0.3 0.05c-0.13 0.01-0.18 0.01-0.23 0.01h-0.1c-0.13-0.01-0.26 0-0.39 0-0.22 0.01-0.44 0.01-0.67-0.03-0.35-0.07-0.68-0.13-0.97-0.2-0.27-0.12-0.52-0.22-0.75-0.31-0.46-0.16-0.73-0.46-0.95-0.58-0.21-0.15-0.32-0.23-0.32-0.23s0.13 0.06 0.37 0.15c0.24 0.07 0.56 0.27 1.02 0.34 0.22 0.04 0.47 0.09 0.74 0.15 0.26 0 0.54 0.01 0.84 0.02 0.29 0.03 0.66-0.09 1.02-0.13l0.23-0.04 0.25-0.08c0.16-0.06 0.34-0.1 0.5-0.19 0.67-0.3 1.32-0.77 1.87-1.39 0.56-0.62 0.99-1.4 1.31-2.26 0.31-0.85 0.44-1.81 0.46-2.76 0-0.51-0.02-0.9-0.11-1.46-0.07-0.47-0.19-0.96-0.35-1.42-0.29-0.93-0.74-1.82-1.32-2.57-0.58-0.746-1.27-1.41-2.05-1.844-0.77-0.433-1.63-0.699-2.41-0.738-0.85-0.027-1.61 0.117-2.3 0.406-0.66 0.313-1.26 0.688-1.69 1.129-0.24 0.207-0.43 0.426-0.61 0.645-0.18 0.207-0.33 0.406-0.45 0.602-0.26 0.37-0.44 0.71-0.55 0.93-0.11 0.23-0.18 0.35-0.18 0.35" fill="#3c2015"/></g>
  <g><path d="m184.71 99.824c-0.02 0.012-1.01 0.586-2.01 1.576-0.99 0.99-2.04 2.42-2.04 4.19 0 1.39 0.68 2.93 2.4 4.45l0.57-0.63c-1.61-1.43-2.12-2.71-2.12-3.82-0.01-1.41 0.87-2.68 1.79-3.59 0.46-0.45 0.92-0.82 1.27-1.06 0.17-0.13 0.32-0.22 0.41-0.28l0.12-0.07 0.03-0.03-0.42-0.736" fill="#3c2015"/></g>
  <g><path d="m175.88 104.96s-0.13-0.7 0-1.77c0.07-0.53 0.18-1.15 0.43-1.78 0.23-0.64 0.6-1.29 1.06-1.867 0.25-0.273 0.49-0.559 0.79-0.773 0.27-0.25 0.59-0.426 0.91-0.582 0.29-0.184 0.63-0.262 0.93-0.356 0.29-0.109 0.59-0.137 0.86-0.156 0.27-0.02 0.52-0.067 0.73-0.035 0.22 0.023 0.41 0.043 0.56 0.058 0.31 0.047 0.48 0.071 0.48 0.071s-0.17 0.039-0.47 0.101c-0.15 0.027-0.33 0.059-0.54 0.094-0.2 0.023-0.42 0.129-0.66 0.191-0.25 0.067-0.5 0.145-0.75 0.278-0.26 0.121-0.53 0.226-0.78 0.41-0.12 0.082-0.25 0.164-0.38 0.25l-0.36 0.304c-0.25 0.188-0.45 0.446-0.66 0.692-0.22 0.23-0.39 0.51-0.57 0.78-0.15 0.28-0.34 0.54-0.46 0.83-0.28 0.56-0.47 1.12-0.65 1.6-0.31 0.97-0.47 1.66-0.47 1.66" fill="#3c2015"/></g>
  <g><path d="m274.55 115.53c-0.5 0-1.01-0.05-1.51-0.14-2.6-0.49-4.81-2.16-6.22-4.73-1.4-2.53-1.85-5.63-1.27-8.73 1.08-5.785 5.42-9.985 10.32-9.985 0.51 0 1.02 0.047 1.52 0.141 5.33 1 8.69 7.035 7.49 13.464-1.08 5.78-5.42 9.98-10.33 9.98" fill="#f6b786"/></g>
  <g><path d="m275.87 91.52c-5.1 0-9.62 4.343-10.74 10.33-0.6 3.2-0.13 6.4 1.31 9.02 1.48 2.67 3.79 4.43 6.52 4.94 0.52 0.1 1.06 0.15 1.59 0.15 5.11 0 9.63-4.35 10.75-10.34 1.24-6.651-2.27-12.913-7.83-13.952-0.52-0.098-1.06-0.148-1.6-0.148m0 0.851c0.48 0 0.96 0.043 1.44 0.133 5.11 0.957 8.31 6.762 7.15 12.966-1.05 5.62-5.32 9.64-9.91 9.64-0.47 0-0.96-0.05-1.44-0.14-5.1-0.95-8.3-6.76-7.14-12.96 1.05-5.619 5.31-9.639 9.9-9.639" fill="#3c2015"/></g>
  <g><path d="m273.92 112.22c-0.11 0-0.24-0.02-0.36-0.04-1.69-4.78-3.67-7.95-3.96-8.41-0.14-0.26-0.28-0.58-0.42-0.95 0.34-0.84 0.7-1.86 1.06-3.035 0.56-0.695 1.21-1.308 1.95-1.719 0.77-0.433 1.63-0.699 2.41-0.738 0.07 0 0.14-0.004 0.21-0.004 0.77 0 1.46 0.149 2.09 0.41 0.66 0.313 1.26 0.688 1.69 1.129 0.24 0.207 0.44 0.426 0.61 0.645 0.18 0.207 0.34 0.406 0.45 0.602 0.26 0.37 0.44 0.71 0.55 0.93 0.12 0.23 0.18 0.35 0.18 0.35s-0.03-0.13-0.09-0.38-0.14-0.61-0.34-1.053c-0.08-0.23-0.2-0.473-0.35-0.727-0.13-0.265-0.3-0.531-0.52-0.8-0.4-0.563-0.99-1.102-1.74-1.563-0.04-0.027-0.09-0.058-0.14-0.086 2.37 0.91 4.07 4.159 4.07 7.399 0 3.28-1.85 6.12-4.55 7.55 0.16-0.11 0.25-0.18 0.25-0.18s-0.13 0.06-0.36 0.15c-0.25 0.07-0.56 0.27-1.02 0.34-0.23 0.04-0.47 0.09-0.74 0.15-0.27 0-0.55 0.01-0.85 0.02-0.02 0-0.05 0.01-0.08 0.01" fill="#df9565"/></g>
  <g><path d="m280.38 101.39s-0.06-0.12-0.18-0.35c-0.11-0.22-0.29-0.56-0.55-0.93-0.11-0.196-0.27-0.395-0.45-0.602-0.17-0.219-0.37-0.438-0.61-0.645-0.43-0.441-1.03-0.816-1.69-1.129-0.69-0.289-1.45-0.433-2.3-0.406-0.78 0.039-1.64 0.305-2.41 0.738-0.78 0.434-1.46 1.098-2.05 1.844-0.58 0.75-1.03 1.64-1.32 2.57-0.16 0.46-0.28 0.95-0.35 1.42-0.09 0.56-0.11 0.95-0.11 1.46 0.02 0.95 0.16 1.91 0.47 2.76 0.31 0.86 0.74 1.64 1.3 2.26 0.55 0.62 1.2 1.09 1.87 1.39 0.16 0.09 0.34 0.13 0.51 0.19l0.25 0.08 0.23 0.04c0.35 0.04 0.72 0.16 1.01 0.13 0.3-0.01 0.58-0.02 0.85-0.02 0.27-0.06 0.51-0.11 0.74-0.15 0.46-0.07 0.77-0.27 1.02-0.34 0.23-0.09 0.36-0.15 0.36-0.15s-0.11 0.08-0.32 0.23c-0.22 0.12-0.49 0.42-0.95 0.57-0.23 0.1-0.47 0.2-0.75 0.32-0.29 0.07-0.61 0.13-0.97 0.2-0.23 0.04-0.45 0.04-0.68 0.03-0.12 0-0.25-0.01-0.38 0h-0.1c-0.05 0-0.11 0-0.22-0.01l-0.31-0.05c-0.2-0.04-0.41-0.07-0.62-0.15-0.85-0.24-1.71-0.72-2.45-1.42-0.74-0.69-1.37-1.58-1.79-2.6-0.42-1.01-0.69-2.13-0.71-3.28-0.03-0.55 0.02-1.24 0.09-1.73 0.08-0.58 0.21-1.15 0.39-1.7 0.72-2.214 2.25-4.226 4.29-5.214 1.01-0.512 2.08-0.73 3.15-0.684 0.99 0.043 1.96 0.36 2.7 0.805 0.75 0.461 1.34 1 1.74 1.563 0.22 0.269 0.39 0.535 0.52 0.8 0.15 0.254 0.27 0.497 0.35 0.727 0.2 0.443 0.28 0.803 0.34 1.053s0.09 0.38 0.09 0.38" fill="#3c2015"/></g>
  <g><path d="m268.73 100.56l0.04 0.03c0.18 0.11 1.11 0.69 1.96 1.59 0.86 0.89 1.63 2.09 1.62 3.41 0 1.11-0.51 2.39-2.12 3.82l0.57 0.63c1.72-1.52 2.41-3.06 2.4-4.45 0-1.77-1.04-3.2-2.04-4.19s-1.98-1.564-2-1.576l-0.43 0.736" fill="#3c2015"/></g>
  <g><path d="m277.98 104.96s-0.16-0.69-0.47-1.66c-0.18-0.48-0.37-1.04-0.65-1.6-0.12-0.29-0.31-0.55-0.46-0.83-0.18-0.27-0.35-0.55-0.56-0.78-0.22-0.246-0.42-0.504-0.67-0.692l-0.36-0.304c-0.13-0.086-0.26-0.168-0.38-0.25-0.25-0.184-0.52-0.289-0.78-0.41-0.25-0.133-0.51-0.211-0.75-0.278-0.24-0.062-0.46-0.168-0.66-0.191-0.21-0.035-0.39-0.067-0.54-0.094-0.3-0.062-0.47-0.101-0.47-0.101s0.17-0.024 0.48-0.071c0.15-0.015 0.34-0.035 0.56-0.058 0.21-0.032 0.46 0.015 0.73 0.035 0.27 0.019 0.57 0.047 0.87 0.156 0.3 0.094 0.63 0.172 0.93 0.356 0.31 0.156 0.63 0.332 0.9 0.582 0.3 0.214 0.54 0.5 0.79 0.773 0.46 0.577 0.83 1.227 1.06 1.867 0.25 0.63 0.36 1.25 0.43 1.78 0.13 1.07 0 1.77 0 1.77" fill="#3c2015"/></g>
  <g><path d="m225.86 167.03c-9.93 0-12.54-4.65-13.06-5.9-7.24-1.42-14.6-5.57-14.68-5.61-10.23-6.13-16.46-13.9-18.51-23.08-3.31-14.82 5.61-28.32 5.71-28.45 1.61-3.05 4.13-15.443 4.15-15.568 6.76-27.317 34.34-28.106 37.47-28.106h0.51c3.13 0 30.79 0.789 37.54 28.082 0.03 0.149 2.55 12.542 4.19 15.632 0.07 0.1 8.85 13.82 5.61 28.86-1.95 9.07-7.78 16.79-17.34 22.92-0.14 0.07-8.54 4.12-15.82 5.51-0.81 0.84-5.55 5.32-14.42 5.68-0.46 0.02-0.91 0.03-1.35 0.03" fill="#f6b786"/></g>
  <g><path d="m227.45 59.824c-0.13 0-0.22 0.004-0.26 0.004s-0.12-0.004-0.25-0.004c-3.17 0-31.1 0.801-37.94 28.457-0.04 0.164-2.52 12.379-4.12 15.479-0.68 1.02-9.04 14.05-5.75 28.78 2.08 9.32 8.38 17.19 18.73 23.4 0.32 0.18 7.37 4.15 14.6 5.63 0.78 1.61 3.77 5.95 13.4 5.95 0.44 0 0.9 0 1.37-0.02 8.69-0.36 13.53-4.62 14.64-5.72 7.3-1.43 15.39-5.33 15.74-5.5l0.05-0.02 0.05-0.03c9.68-6.21 15.59-14.03 17.56-23.23 3.22-14.99-5.04-28.25-5.67-29.23-1.61-3.1-4.1-15.325-4.12-15.446-6.85-27.699-34.86-28.5-38.03-28.5m0 0.988c2.95 0 30.39 0.727 37.06 27.708 0 0 2.54 12.55 4.24 15.74 0 0 20.07 30.84-11.57 51.13 0 0-8.47 4.11-15.8 5.48 0 0-4.72 5.26-14.19 5.64-0.46 0.02-0.9 0.03-1.33 0.03-10.98 0-12.69-5.84-12.69-5.84-7.33-1.37-14.8-5.61-14.8-5.61-33.38-19.99-12.65-50.83-12.65-50.83 1.69-3.19 4.23-15.74 4.23-15.74 6.67-26.981 34.05-27.708 36.99-27.708h0.25 0.26" fill="#3c2015"/></g>
  <g><path d="m180.41 117.02c0.54-2.23 1.22-4.25 1.91-6l1.09-0.54c12.11-6.04 21.63-25.23 25.71-34.664 4.37 5.969 11.05 11.704 20.84 12.641 13.18 3.242 34.3 10.582 35.19 16.563l0.67 4.5 2.15-4c0.06-0.11 0.32-0.61 0.69-1.43 0.02 0.06 0.05 0.12 0.09 0.17 0.01 0.02 0.32 0.5 0.8 1.37 0.11 0.21 0.24 0.45 0.38 0.7-2.61 4.61-5.2 8.41-5.2 8.41 1.25-15.201-35.6-21.318-35.6-21.318-10.14-1.684-17.34-10.281-17.34-10.281-8.52 16.593-25.83 29.899-31.38 33.879" fill="#df9565"/></g>
  <g><path d="m269.93 106.33c-0.14-0.25-0.27-0.49-0.38-0.7 0.11 0.21 0.24 0.45 0.38 0.7m-1.18-2.07" fill="#804a2d"/></g>
  <g><path d="m213.45 127.89s13.7-9.55 27.77 0h-27.77" fill="#f25a96"/></g>
  <g><path d="m217.48 143.68s7.88 13.69 18.91 0.22l-18.91-0.22" fill="#f25a96"/></g>
  <g><path d="m202.81 124.62c-6.41 0-11.61-2.21-11.61-4.94s5.2-4.94 11.61-4.94c6.42 0 11.62 2.21 11.62 4.94s-5.2 4.94-11.62 4.94" fill="#f69a89"/></g>
  <g><path d="m253.12 124.62c-6.41 0-11.61-2.21-11.61-4.94s5.2-4.94 11.61-4.94c6.42 0 11.61 2.21 11.61 4.94s-5.19 4.94-11.61 4.94" fill="#f69a89"/></g>
  <g><path d="m225.86 166.54c-10.98 0-12.69-5.84-12.69-5.84-7.33-1.37-14.8-5.61-14.8-5.61-0.01-0.01-0.03-0.02-0.04-0.02-0.01-0.01-0.02-0.01-0.03-0.02l-0.01-0.01c-12.02-7.22-16.99-15.85-18.44-23.93 5.41 9.45 16.27 24.35 31.97 26.85 0 0 7.18 5.63 15.35 5.63 5.26 0 10.93-2.32 15.38-9.97 0 0 1.43 3.59 1.43 4.34 0 0 27.25-8.55 30.93-34.86 0.57 7.17-0.86 15.49-7.26 23.24h-0.01c0 0.01-0.01 0.02-0.02 0.03l-0.03 0.03c0 0.01-0.02 0.02-0.02 0.03-0.01 0.02-0.02 0.02-0.03 0.03v0.01c-0.01 0.01-0.02 0.01-0.02 0.02s-0.01 0.01-0.01 0.01c-0.01 0.01-0.01 0.02-0.02 0.02l-0.01 0.01c0 0.01-0.01 0.02-0.02 0.03l-0.01 0.01s-0.01 0.01-0.01 0.02c-0.01 0-0.01 0.01-0.01 0.01-0.01 0.01-0.02 0.01-0.02 0.02 0 0-0.01 0.01-0.01 0.02-0.01 0-0.01 0.01-0.02 0.01 0 0.01-0.01 0.01-0.01 0.02-0.01 0-0.01 0.01-0.01 0.01l-0.02 0.02c0 0.01-0.01 0.01-0.01 0.02l-0.02 0.02c-0.01 0-0.01 0.01-0.01 0.01-2.41 2.83-5.49 5.58-9.39 8.16v0.01c-0.02 0.01-0.03 0.02-0.04 0.03h-0.01c-0.01 0.01-0.02 0.01-0.04 0.03-0.02 0.01-0.03 0.02-0.04 0.03h-0.01c-0.01 0.01-0.02 0.02-0.04 0.03s-0.03 0.01-0.04 0.03h-0.01c-0.01 0.01-0.02 0.02-0.04 0.02v0.01c-0.02 0.01-0.03 0.01-0.04 0.02l-0.01 0.01c-0.01 0.01-0.02 0.01-0.04 0.02v0.01c-0.02 0.01-0.03 0.01-0.04 0.02l-0.01 0.01c-0.01 0.01-0.02 0.01-0.04 0.02l-0.01 0.01c-0.01 0.01-0.02 0.01-0.03 0.02-0.01 0-0.01 0.01-0.01 0.01-0.02 0-0.03 0.01-0.04 0.02l-0.01 0.01c-0.01 0.01-0.02 0.01-0.04 0.02s-0.03 0.02-0.04 0.03l-0.01 0.01c-0.01 0-0.02 0.01-0.03 0.02-0.01 0-0.01 0-0.02 0.01s-0.02 0.02-0.04 0.02c0 0-8.47 4.11-15.8 5.48 0 0-4.72 5.26-14.19 5.64-0.15 0.01-0.3 0.01-0.45 0.02-0.3 0.01-0.59 0.01-0.88 0.01" fill="#df9565"/></g>
  <g><path d="m225.86 166.54c-10.98 0-12.69-5.84-12.69-5.84-7.33-1.37-14.8-5.61-14.8-5.61-0.01-0.01-0.03-0.02-0.04-0.02 0.01 0 0.03 0.01 0.04 0.02 0 0 7.47 4.24 14.8 5.61 0 0 1.71 5.84 12.69 5.84 0.29 0 0.58 0 0.88-0.01-0.3 0.01-0.59 0.01-0.88 0.01m1.33-0.03c9.47-0.38 14.19-5.64 14.19-5.64 7.33-1.37 15.8-5.48 15.8-5.48 0.02 0 0.03-0.01 0.04-0.02-0.01 0.01-0.02 0.02-0.04 0.02 0 0-8.47 4.11-15.8 5.48 0 0-4.72 5.26-14.19 5.64m30.05-11.15c0.01-0.01 0.02-0.02 0.03-0.02-0.01 0-0.02 0.01-0.03 0.02m0.04-0.03c0.01-0.01 0.02-0.02 0.04-0.03-0.02 0.01-0.03 0.02-0.04 0.03m0.04-0.03c0.02-0.01 0.03-0.01 0.04-0.02-0.01 0.01-0.02 0.01-0.04 0.02m0.05-0.03c0.01-0.01 0.02-0.02 0.04-0.02-0.02 0-0.02 0.01-0.04 0.02m0.05-0.03c0.01-0.01 0.02-0.01 0.03-0.02-0.01 0.01-0.02 0.01-0.03 0.02m0.04-0.03c0.02-0.01 0.03-0.01 0.04-0.02-0.01 0.01-0.02 0.01-0.04 0.02m0.05-0.03c0.01-0.01 0.02-0.01 0.04-0.02-0.02 0-0.03 0.02-0.04 0.02m0.04-0.03c0.02-0.01 0.03-0.01 0.04-0.02-0.01 0.01-0.02 0.01-0.04 0.02m0.05-0.03c0.01-0.01 0.02-0.01 0.04-0.02-0.02 0.01-0.03 0.01-0.04 0.02m0.04-0.03c0.02 0 0.03-0.01 0.04-0.02-0.01 0-0.02 0.02-0.04 0.02m0.05-0.02c0.01-0.02 0.02-0.02 0.04-0.03-0.02 0.01-0.03 0.01-0.04 0.03m-59.39-0.02s-0.01 0-0.01-0.01l0.01 0.01m59.43-0.01c0.02-0.01 0.03-0.02 0.04-0.03-0.01 0.01-0.02 0.01-0.04 0.03m0.05-0.03c0.01-0.01 0.02-0.02 0.04-0.03-0.02 0.01-0.03 0.02-0.04 0.03m0.04-0.03c0.02-0.02 0.03-0.02 0.04-0.03-0.01 0.01-0.02 0.02-0.04 0.03m0.05-0.03c0.01-0.01 0.02-0.02 0.04-0.03-0.02 0.01-0.03 0.02-0.04 0.03m0.04-0.04c3.9-2.58 6.98-5.33 9.39-8.16-2.41 2.83-5.49 5.58-9.39 8.16m9.4-8.17l0.02-0.02c-0.01 0-0.01 0.01-0.02 0.02m0.03-0.04l0.02-0.02-0.02 0.02m0.03-0.03c0-0.01 0.01-0.01 0.01-0.02 0 0.01-0.01 0.01-0.01 0.02m0.03-0.03c0-0.01 0.01-0.02 0.01-0.02s-0.01 0.01-0.01 0.02m0.03-0.04s0-0.01 0.01-0.01c-0.01 0-0.01 0.01-0.01 0.01m0.02-0.03l0.01-0.01-0.01 0.01m0.03-0.04l0.01-0.01c0 0.01-0.01 0.01-0.01 0.01m0.03-0.03s0.01 0 0.01-0.01c0 0.01-0.01 0.01-0.01 0.01m0.03-0.03v-0.01 0.01m0.03-0.04m0.02-0.03m0.03-0.03m0.02-0.03h0.01-0.01" fill="#804a2d"/></g>
  <g><path d="m221.04 156.11s5.41 1.55 12.31 0c0 0-6.9 8.32-12.31 0" fill="#cb7647"/></g>
  <g><path d="m220.79 116.69s7.46-8.73 13.17-0.05l-13.17 0.05" fill="#f6b786"/></g>
  <g><path d="m220.79 116.69s0.12-0.22 0.4-0.56c0.27-0.34 0.67-0.83 1.23-1.34 0.28-0.26 0.6-0.53 0.95-0.79 0.36-0.24 0.73-0.53 1.17-0.73 0.42-0.25 0.89-0.44 1.37-0.61 0.24-0.1 0.5-0.12 0.76-0.19 0.26-0.04 0.51-0.13 0.78-0.13 0.54-0.02 1.07-0.04 1.59 0.09 0.53 0.04 1 0.28 1.46 0.48 0.24 0.08 0.45 0.2 0.63 0.35 0.19 0.14 0.38 0.28 0.56 0.41 0.39 0.23 0.62 0.6 0.89 0.87 0.26 0.28 0.5 0.54 0.64 0.82 0.16 0.26 0.3 0.49 0.41 0.68 0.22 0.38 0.33 0.6 0.33 0.6l-0.48-0.48c-0.16-0.16-0.34-0.35-0.54-0.56-0.19-0.23-0.48-0.42-0.75-0.65-0.3-0.21-0.55-0.51-0.92-0.68-0.18-0.1-0.36-0.2-0.54-0.31-0.18-0.1-0.37-0.21-0.58-0.26-0.41-0.14-0.82-0.3-1.26-0.33-0.23-0.02-0.44-0.1-0.67-0.08l-0.68 0.03c-0.23-0.01-0.45 0.07-0.68 0.1-0.22 0.05-0.45 0.06-0.67 0.15-0.43 0.15-0.87 0.27-1.27 0.47-0.82 0.35-1.53 0.8-2.15 1.19-0.61 0.41-1.12 0.75-1.45 1.03-0.34 0.27-0.53 0.43-0.53 0.43" fill="#3c2015"/></g>
  <g><path d="m201.51 93.68s5.4-9.813 14.45-2.59c0 0-9.42-13.383-14.45 2.59" fill="#3c2015"/></g>
  <g><path d="m254.81 93.68s-5.4-9.813-14.45-2.59c0 0 9.42-13.383 14.45 2.59" fill="#3c2015"/></g>
  <g><path d="m215.96 94.547s-0.21-0.102-0.6-0.238c-0.38-0.153-0.94-0.317-1.61-0.457-0.34-0.082-0.7-0.122-1.09-0.172-0.38-0.032-0.79-0.055-1.2-0.035-0.21 0.011-0.42 0.027-0.64 0.039-0.2 0.039-0.41 0.074-0.63 0.113-0.43 0.043-0.83 0.238-1.26 0.355-0.39 0.184-0.81 0.356-1.18 0.575-0.35 0.257-0.75 0.445-1.07 0.722-0.32 0.274-0.64 0.535-0.93 0.785-0.27 0.289-0.53 0.555-0.78 0.801-0.5 0.481-0.83 0.969-1.11 1.274-0.26 0.316-0.43 0.492-0.43 0.492s0.09-0.219 0.27-0.594c0.09-0.187 0.2-0.414 0.33-0.676 0.12-0.269 0.28-0.558 0.5-0.847 0.2-0.297 0.43-0.618 0.68-0.954 0.28-0.304 0.59-0.625 0.91-0.949 0.34-0.316 0.74-0.582 1.14-0.867 0.41-0.258 0.87-0.469 1.32-0.68 0.49-0.129 0.95-0.332 1.45-0.375 0.24-0.035 0.48-0.074 0.72-0.089 0.24 0.003 0.48 0.003 0.71 0.007 0.47 0.004 0.91 0.098 1.33 0.18 0.41 0.098 0.79 0.211 1.12 0.355 0.68 0.258 1.19 0.598 1.54 0.829 0.35 0.234 0.51 0.406 0.51 0.406" fill="#3c2015"/></g>
  <g><path d="m240.59 94.77s0.17-0.172 0.52-0.411c0.34-0.226 0.85-0.562 1.53-0.824 0.34-0.144 0.72-0.258 1.13-0.355 0.41-0.082 0.85-0.172 1.32-0.18 0.23-0.004 0.47-0.004 0.71-0.008 0.24 0.016 0.49 0.059 0.73 0.094 0.49 0.039 0.96 0.242 1.44 0.371 0.46 0.211 0.91 0.422 1.33 0.68 0.39 0.285 0.8 0.551 1.13 0.871 0.32 0.32 0.63 0.64 0.92 0.945 0.24 0.336 0.47 0.66 0.67 0.957 0.23 0.285 0.38 0.578 0.5 0.844 0.13 0.262 0.24 0.488 0.34 0.68 0.18 0.375 0.26 0.589 0.26 0.589s-0.16-0.175-0.43-0.492c-0.28-0.304-0.6-0.793-1.11-1.273-0.24-0.246-0.51-0.512-0.77-0.801-0.3-0.25-0.61-0.512-0.94-0.785-0.32-0.277-0.72-0.461-1.07-0.723-0.37-0.219-0.78-0.39-1.18-0.57-0.42-0.121-0.82-0.317-1.26-0.359-0.21-0.04-0.42-0.079-0.63-0.114-0.21-0.011-0.43-0.027-0.63-0.039-0.42-0.019-0.82 0.004-1.21 0.035-0.38 0.051-0.75 0.09-1.09 0.172-0.66 0.141-1.23 0.305-1.61 0.457-0.38 0.137-0.6 0.239-0.6 0.239" fill="#3c2015"/></g>
  <g><path d="m211.8 157.19s0.02 0.14 0.1 0.37c0.05 0.23 0.17 0.55 0.28 0.92 0.05 0.19 0.16 0.38 0.22 0.59 0.09 0.2 0.14 0.43 0.26 0.64 0.1 0.22 0.22 0.43 0.31 0.67 0.08 0.23 0.24 0.44 0.37 0.66 0.12 0.22 0.25 0.44 0.37 0.66 0.15 0.2 0.29 0.4 0.43 0.59 0.15 0.19 0.27 0.39 0.4 0.58 0.11 0.19 0.28 0.32 0.4 0.48 0.52 0.59 0.84 1.07 0.84 1.07s-0.51-0.21-1.22-0.65c-0.17-0.12-0.4-0.21-0.55-0.39-0.17-0.17-0.36-0.34-0.54-0.54-0.17-0.2-0.38-0.38-0.54-0.6l-0.45-0.72c-0.13-0.25-0.29-0.48-0.37-0.75-0.11-0.26-0.18-0.53-0.27-0.78-0.1-0.24-0.1-0.51-0.15-0.74-0.03-0.24-0.08-0.46-0.06-0.68-0.03-0.84 0.17-1.38 0.17-1.38" fill="#3c2015"/></g>
  <g><path d="m242.55 157.52s0.04 0.13 0.05 0.37c0.03 0.23 0.01 0.57-0.03 0.98-0.03 0.2-0.08 0.41-0.14 0.64-0.05 0.22-0.11 0.47-0.23 0.69-0.1 0.23-0.2 0.48-0.32 0.72-0.11 0.24-0.28 0.46-0.43 0.69-0.16 0.21-0.31 0.44-0.48 0.64-0.18 0.2-0.38 0.37-0.56 0.55s-0.36 0.33-0.54 0.48c-0.17 0.15-0.37 0.25-0.55 0.36-0.69 0.41-1.18 0.59-1.18 0.59s0.31-0.46 0.82-1.02c0.12-0.15 0.27-0.29 0.4-0.46 0.13-0.18 0.26-0.36 0.41-0.54 0.16-0.18 0.3-0.37 0.46-0.55 0.15-0.2 0.27-0.41 0.41-0.61 0.14-0.21 0.31-0.39 0.42-0.6 0.11-0.22 0.24-0.42 0.36-0.62 0.13-0.19 0.23-0.39 0.33-0.58 0.1-0.2 0.19-0.37 0.28-0.54 0.15-0.35 0.3-0.64 0.38-0.85 0.09-0.21 0.14-0.34 0.14-0.34" fill="#3c2015"/></g>
  <g><path d="m227.62 119.19c-3.65 0-6.58-0.88-6.58-0.88 0.64-0.65 1.26-1.18 1.87-1.63l9.1-0.03c0.88 0.84 1.34 1.66 1.34 1.66-1.9 0.66-3.9 0.88-5.73 0.88" fill="#df9565"/></g>
  <g><path d="m222.91 116.68c1.84-1.37 3.46-1.87 4.84-1.87 1.88 0 3.32 0.93 4.26 1.84l-9.1 0.03" fill="#df9565"/></g>
  <g><path d="m198.48 169.16l-17.19-23.9s-18.69 0-29.53 23.17l39.64 22.68 7.08-21.95" fill="#fff"/></g>
  <g><path d="m198.48 169.16c-1.52-1.93-3.02-3.87-4.51-5.82s-3-3.89-4.47-5.85l-8.82-11.79 0.61 0.32c-0.73 0.03-1.55 0.14-2.32 0.27-0.78 0.13-1.56 0.31-2.33 0.51-1.55 0.41-3.06 0.95-4.52 1.59-2.92 1.31-5.65 3.03-8.11 5.07-0.6 0.53-1.22 1.04-1.78 1.61-0.59 0.54-1.14 1.13-1.69 1.71-1.08 1.19-2.13 2.41-3.06 3.72-0.49 0.64-0.94 1.3-1.38 1.98-0.47 0.66-0.85 1.36-1.28 2.05-0.41 0.69-0.78 1.41-1.18 2.11l-1.08 2.16-0.36-1.13 9.86 5.76 9.82 5.83c3.26 1.95 6.55 3.88 9.79 5.87s6.51 3.96 9.73 5.98c-3.38-1.75-6.73-3.56-10.09-5.36-3.36-1.78-6.69-3.63-10.02-5.46l-10.01-5.51-9.96-5.58-0.72-0.41 0.36-0.73 1.1-2.24c0.41-0.73 0.79-1.48 1.21-2.2 0.44-0.71 0.84-1.44 1.32-2.13 0.45-0.7 0.91-1.4 1.42-2.07 0.48-0.69 1.01-1.34 1.53-1.99 0.52-0.66 1.09-1.27 1.66-1.89 0.58-0.61 1.16-1.22 1.78-1.79 0.59-0.59 1.25-1.12 1.88-1.67 0.66-0.53 1.31-1.06 2-1.54 0.68-0.5 1.39-0.95 2.1-1.4 1.43-0.89 2.93-1.66 4.49-2.31 1.55-0.65 3.15-1.19 4.78-1.6 0.82-0.2 1.65-0.37 2.49-0.5s1.66-0.22 2.57-0.23h0.4l0.22 0.32 8.37 12.11c1.39 2.02 2.74 4.07 4.12 6.1 1.37 2.03 2.74 4.07 4.08 6.13" fill="#3c2015"/></g>
  <g><path d="m180.96 146.19s-2.1 23.58-28.56 22.61c0 0 5.44-12.35 14.83-18.3 0 0 6.55-4.01 13.73-4.31" fill="#adbcbc"/></g>
  <g><path d="m180.96 146.19l-0.23-0.02s0 0.08-0.02 0.24c-0.16 1.23-1.04 6.79-4.78 12.02-3.75 5.24-10.32 10.16-21.95 10.17-0.52 0-1.04-0.01-1.57-0.03l-0.01 0.23 0.21 0.09s0.08-0.19 0.25-0.53c1.16-2.43 6.34-12.51 14.49-17.66l-0.12-0.2 0.12 0.2s0.1-0.06 0.29-0.17c1.33-0.76 7.11-3.85 13.33-4.11l-0.01-0.23-0.23-0.02 0.23 0.02-0.01-0.23c-7.26 0.31-13.83 4.34-13.84 4.35-9.48 6.01-14.91 18.38-14.92 18.4l-0.14 0.31 0.34 0.01c0.54 0.02 1.07 0.03 1.59 0.03 12.55 0 19.39-5.72 23.04-11.43 3.66-5.71 4.17-11.4 4.17-11.42l0.02-0.26-0.26 0.01 0.01 0.23" fill="#3c2015"/></g>
  <g><path d="m117.16 110.52l17.6-15.786 43.07 59.636-0.18 0.38c-4.04 8.47-7.94 9.36-8.1 9.39l-0.37 0.07-52.02-53.69" fill="#f6b786"/></g>
  <g><path d="m134.87 93.691l-1.16 1.043-16.48 14.786-1.08 0.97 1.01 1.05 51.25 52.89 0.53 0.55 0.75-0.16c0.45-0.09 4.47-1.13 8.6-9.77l0.35-0.75-0.48-0.68-42.38-58.667-0.91-1.262m-0.23 2.086l42.38 58.673c-3.94 8.25-7.61 9-7.61 9l-51.24-52.89 16.47-14.783" fill="#3c2015"/></g>
  <g><path d="m133.51 103.64s16.63-19.91-0.64-25.113l-2.88-7.343s-4.9-5.887-10.1-2.954l-2.85 6.063s-5.02-1.711-6.79 1.668c0 0-2.44 4.687-1.23 6.719l-3.43-0.989s-4.82-0.316-5.39 3.161c0 0-0.536 4.519 1.43 5.765 0 0-10.708 1.211-3.9 9.141 0 0 11.16 19.262 27.01 10.582l8.77-6.7" fill="#f6b786"/></g>
  <g><path d="m133.51 103.64c1.56-2.05 2.93-4.234 4.11-6.503 1.16-2.274 2.13-4.672 2.54-7.164 0.2-1.243 0.27-2.508 0.08-3.731-0.19-1.219-0.64-2.383-1.35-3.371-1.44-2-3.78-3.152-6.17-3.848l-0.24-0.07-0.09-0.238-2.96-7.313 0.1 0.164c-0.27-0.316-0.61-0.652-0.95-0.953-0.33-0.304-0.69-0.59-1.06-0.855-0.73-0.531-1.52-0.981-2.34-1.289-0.83-0.305-1.7-0.469-2.55-0.414-0.85 0.043-1.67 0.316-2.43 0.734l0.27-0.285-2.83 6.074-0.25 0.531-0.57-0.183c-0.24-0.074-0.53-0.149-0.8-0.203-0.29-0.059-0.57-0.102-0.85-0.133-0.56-0.063-1.12-0.067-1.66 0.004-1.08 0.133-2.01 0.629-2.52 1.496-0.25 0.426-0.51 1.023-0.73 1.551-0.22 0.543-0.42 1.097-0.58 1.652-0.15 0.555-0.27 1.113-0.3 1.652-0.04 0.532 0.02 1.051 0.23 1.387l0.89 1.477-1.66-0.481-3.44-0.992 0.14 0.023c-0.21-0.011-0.49-0.011-0.73 0.004-0.25 0.012-0.5 0.035-0.75 0.075-0.49 0.07-0.97 0.195-1.42 0.374-0.88 0.36-1.54 1.004-1.76 1.872-0.02 0.101-0.06 0.246-0.06 0.308l-0.03 0.383c-0.02 0.258-0.03 0.52-0.03 0.777-0.01 0.52 0.02 1.036 0.09 1.539 0.13 0.989 0.45 2.004 1.1 2.414l1.4 0.895-1.65 0.215c-0.51 0.066-1.06 0.18-1.57 0.32-0.525 0.141-1.032 0.313-1.517 0.527-0.957 0.426-1.84 1.036-2.277 1.86-0.215 0.406-0.313 0.867-0.289 1.344 0.008 0.238 0.047 0.48 0.109 0.722 0.059 0.246 0.141 0.485 0.242 0.727 0.196 0.476 0.461 0.941 0.758 1.39 0.301 0.45 0.637 0.879 0.985 1.301l0.035 0.043 0.023 0.039c0.653 1.122 1.434 2.222 2.241 3.262 0.82 1.05 1.69 2.05 2.63 3 0.93 0.94 1.92 1.82 2.98 2.63 0.52 0.41 1.07 0.78 1.63 1.13 0.55 0.37 1.14 0.68 1.72 0.99 0.59 0.3 1.19 0.58 1.81 0.81 0.61 0.24 1.25 0.45 1.89 0.6 0.64 0.18 1.29 0.27 1.95 0.38 0.66 0.05 1.33 0.12 1.99 0.08 0.67 0.02 1.33-0.08 1.99-0.15 0.65-0.13 1.32-0.22 1.96-0.43 0.65-0.16 1.28-0.39 1.9-0.63 0.64-0.23 1.23-0.55 1.85-0.82-0.6 0.3-1.18 0.65-1.8 0.92s-1.24 0.54-1.89 0.73c-0.64 0.24-1.31 0.36-1.97 0.52-0.67 0.09-1.34 0.22-2.03 0.23-0.67 0.06-1.36 0.02-2.04-0.01-0.68-0.07-1.36-0.14-2.03-0.3-0.67-0.13-1.33-0.32-1.98-0.55-0.65-0.21-1.28-0.48-1.91-0.76-2.47-1.19-4.68-2.85-6.64-4.74-0.99-0.95-1.91-1.96-2.774-3.02s-1.672-2.14-2.41-3.33l0.058 0.08c-0.379-0.446-0.742-0.903-1.082-1.391-0.328-0.489-0.637-1.004-0.879-1.571-0.121-0.281-0.226-0.57-0.304-0.878-0.082-0.301-0.137-0.625-0.153-0.95-0.043-0.648 0.086-1.34 0.395-1.929 0.304-0.602 0.754-1.09 1.246-1.481 0.496-0.387 1.031-0.687 1.582-0.933 0.547-0.247 1.113-0.442 1.683-0.598 0.578-0.16 1.138-0.277 1.748-0.363l-0.25 1.109c-0.61-0.387-0.99-0.973-1.23-1.535-0.244-0.574-0.369-1.156-0.451-1.731-0.082-0.574-0.113-1.144-0.113-1.711 0-0.285 0.007-0.566 0.023-0.851l0.035-0.43c0.02-0.207 0.059-0.328 0.086-0.492 0.16-0.621 0.48-1.227 0.93-1.695 0.44-0.477 0.99-0.817 1.55-1.059 0.56-0.238 1.14-0.391 1.72-0.48 0.29-0.047 0.58-0.082 0.87-0.102 0.3-0.016 0.57-0.023 0.9-0.012l0.07 0.004 0.07 0.024 3.44 0.976-0.76 0.996c-0.43-0.73-0.47-1.488-0.43-2.16 0.03-0.683 0.17-1.32 0.34-1.941s0.37-1.223 0.61-1.809c0.25-0.597 0.46-1.133 0.83-1.758 0.37-0.613 0.92-1.148 1.55-1.496 0.63-0.359 1.31-0.543 1.99-0.629 0.67-0.082 1.34-0.066 1.98 0.012 0.33 0.035 0.65 0.09 0.97 0.156 0.32 0.071 0.62 0.145 0.96 0.258l-0.82 0.348 2.88-6.051 0.08-0.187 0.18-0.098c0.91-0.5 1.94-0.836 3-0.879 1.05-0.059 2.09 0.152 3.04 0.512 0.96 0.367 1.83 0.879 2.64 1.468 0.39 0.293 0.78 0.614 1.14 0.946 0.38 0.34 0.72 0.676 1.06 1.082l0.07 0.07 0.03 0.094 2.81 7.371-0.34-0.309c1.26 0.403 2.49 0.914 3.63 1.618 1.13 0.707 2.17 1.609 2.94 2.738 0.77 1.117 1.23 2.429 1.41 3.754 0.17 1.328 0.07 2.668-0.19 3.953-0.53 2.574-1.61 4.965-2.88 7.215s-2.75 4.375-4.42 6.335" fill="#3c2015"/></g>
  <g><path d="m127.78 91.746s-3.33 5.484-2.16 12.134c0 0-3.4-4.911-0.26-11.54l2.42-0.594" fill="#e4a488"/></g>
  <g><path d="m111.54 104.87c-4.22 0-8.47-3.62-8.47-3.62 0.14 0.05 0.29 0.08 0.42 0.12 0.08 0.05 0.17 0.09 0.25 0.14 1.38 0.72 2.87 1.2 4.39 1.52 0.7 0.15 1.44 0.25 2.21 0.25h0.16c0.82-0.03 1.71-0.17 2.48-0.66 0.79-0.47 1.38-1.27 1.65-2.1 0.14-0.42 0.23-0.852 0.26-1.278 0.03-0.433 0.02-0.824-0.04-1.297l-0.01-0.05-0.02-0.04c-0.12-0.339-0.23-0.695-0.38-1.027-0.06-0.144-0.13-0.293-0.2-0.433 0.32 0.066 0.65 0.101 0.98 0.101 0.13 0 0.26-0.004 0.38-0.016 0.77-0.046 1.6-0.367 2.19-0.996 0.59-0.632 0.88-1.464 0.99-2.254 0.11-0.789 0.07-1.562-0.03-2.316l0.58-0.426-0.04-0.047 0.07-0.027c0.12 0.125 0.25 0.246 0.39 0.363 0.49 0.446 1.04 0.832 1.64 1.141 0.59 0.309 1.23 0.551 1.9 0.66 0.37 0.067 0.74 0.098 1.11 0.098 0.15 0 0.3-0.008 0.45-0.016l-0.69 1.988c-2.46 3.93-5.84 4.411-5.84 4.411-1.59 4.441-4.18 5.811-6.78 5.811m2.58-8.722c-0.01-0.027-0.03-0.054-0.05-0.086 0.01 0.004 0.02 0.004 0.03 0.008 0.01 0.032 0.02 0.047 0.02 0.047 0.04-0.004 0.09-0.004 0.13-0.008 0.04 0.008 0.08 0.02 0.11 0.028-0.08 0.004-0.16 0.008-0.24 0.011" fill="#df9565"/></g>
  <g><path d="m125.85 92.598s-0.06 0.172-0.18 0.476c-0.11 0.309-0.26 0.762-0.42 1.313-0.32 1.101-0.64 2.609-0.73 4.144-0.05 0.766-0.01 1.529 0.07 2.249 0.06 0.35 0.12 0.7 0.19 1.02 0.1 0.32 0.2 0.62 0.28 0.89 0.13 0.27 0.24 0.51 0.35 0.72 0.09 0.22 0.24 0.37 0.32 0.52 0.2 0.28 0.32 0.45 0.32 0.45s-0.14-0.15-0.37-0.4c-0.12-0.13-0.29-0.27-0.41-0.48-0.14-0.2-0.3-0.43-0.47-0.68-0.13-0.27-0.27-0.57-0.42-0.88-0.13-0.33-0.24-0.68-0.36-1.04-0.2-0.74-0.36-1.541-0.42-2.353-0.14-1.621-0.03-3.258 0.13-4.473 0.08-0.605 0.17-1.109 0.24-1.465 0.08-0.359 0.12-0.566 0.12-0.566l1.76 0.555" fill="#3c2015"/></g>
  <g><path d="m134.41 79.059c-1.77-0.114-3.53-0.051-5.25 0.214-1.73 0.25-3.42 0.731-4.92 1.539-0.37 0.211-0.74 0.418-1.09 0.665-0.35 0.242-0.69 0.5-0.99 0.793-0.32 0.277-0.59 0.597-0.86 0.914-0.25 0.336-0.51 0.671-0.71 1.043-0.23 0.351-0.39 0.746-0.56 1.128-0.14 0.395-0.3 0.786-0.39 1.2-0.12 0.406-0.2 0.824-0.28 1.242s-0.1 0.848-0.15 1.269l-0.07-0.261c0.15 0.226 0.34 0.476 0.54 0.699 0.2 0.226 0.41 0.445 0.63 0.648 0.44 0.41 0.93 0.77 1.46 1.059 1.05 0.566 2.25 0.855 3.46 0.766 1.21-0.086 2.38-0.555 3.48-1.153 0.54-0.304 1.07-0.652 1.58-1.027 0.5-0.387 0.99-0.789 1.47-1.203-0.42 0.472-0.86 0.941-1.33 1.371-0.48 0.426-0.98 0.832-1.52 1.199-0.27 0.168-0.53 0.363-0.82 0.504-0.29 0.16-0.59 0.301-0.89 0.422-0.3 0.133-0.61 0.23-0.93 0.324-0.32 0.09-0.65 0.156-0.97 0.199-0.67 0.09-1.35 0.082-2.01-0.035-0.67-0.109-1.31-0.351-1.9-0.66-0.6-0.309-1.15-0.695-1.64-1.141-0.26-0.218-0.49-0.453-0.71-0.703-0.23-0.25-0.44-0.496-0.64-0.797l-0.09-0.121 0.02-0.14c0.05-0.454 0.06-0.911 0.14-1.36s0.14-0.906 0.29-1.344c0.11-0.445 0.28-0.874 0.45-1.3 0.2-0.418 0.38-0.848 0.63-1.231 0.23-0.402 0.52-0.765 0.8-1.133 0.31-0.343 0.62-0.687 0.97-0.988 0.34-0.312 0.71-0.586 1.09-0.844 0.38-0.257 0.78-0.476 1.19-0.687 1.65-0.777 3.43-1.172 5.21-1.34 0.89-0.078 1.78-0.074 2.67-0.035 0.89 0.043 1.77 0.129 2.64 0.305" fill="#3c2015"/></g>
  <g><path d="m115.91 74.562c0.61-0.179 1.25-0.191 1.89-0.109 0.31 0.043 0.62 0.125 0.93 0.215 0.16 0.035 0.31 0.113 0.46 0.172 0.15 0.058 0.3 0.133 0.44 0.211 0.59 0.293 1.12 0.711 1.56 1.215 0.22 0.242 0.42 0.515 0.58 0.8 0.18 0.282 0.3 0.59 0.43 0.883l-0.06-0.094c0.3 0.504 0.54 0.997 0.72 1.536 0.16 0.535 0.29 1.113 0.19 1.671-0.23-0.503-0.53-0.921-0.84-1.335-0.32-0.411-0.65-0.821-0.98-1.18l-0.06-0.098c-0.17-0.219-0.29-0.461-0.47-0.66-0.17-0.207-0.33-0.414-0.52-0.601-0.36-0.383-0.77-0.731-1.21-1.04-0.21-0.171-0.45-0.296-0.69-0.445-0.23-0.152-0.49-0.269-0.74-0.41-0.51-0.254-1.04-0.496-1.63-0.731" fill="#3c2015"/></g>
  <g><path d="m100.73 90.84c1.37-0.281 2.77-0.305 4.18-0.223 1.4 0.11 2.82 0.41 4.15 0.961s2.59 1.367 3.59 2.465c0.51 0.539 0.95 1.145 1.3 1.793 0.19 0.316 0.34 0.652 0.49 0.992 0.15 0.332 0.26 0.688 0.38 1.027l0.02 0.04 0.01 0.05c0.06 0.473 0.07 0.864 0.04 1.297-0.03 0.426-0.12 0.858-0.26 1.278-0.27 0.83-0.86 1.63-1.65 2.1-0.77 0.49-1.66 0.63-2.48 0.66-0.82 0.01-1.62-0.09-2.37-0.25-1.52-0.32-3.01-0.8-4.39-1.52-0.68-0.37-1.33-0.8-1.92-1.31-0.59-0.497-1.1-1.098-1.46-1.766 0.99 1.156 2.3 1.916 3.68 2.426 1.37 0.53 2.82 0.86 4.28 1.06 0.73 0.09 1.44 0.17 2.13 0.12 0.68-0.05 1.33-0.22 1.83-0.54 0.51-0.32 0.87-0.82 1.06-1.42 0.09-0.295 0.15-0.615 0.18-0.943 0.02-0.321 0.02-0.688-0.02-0.965l0.02 0.09c-0.11-0.301-0.19-0.617-0.33-0.914-0.12-0.297-0.25-0.59-0.41-0.871-0.14-0.293-0.33-0.547-0.49-0.825-0.2-0.257-0.37-0.527-0.59-0.765-0.82-0.989-1.9-1.766-3.07-2.367-0.59-0.293-1.21-0.54-1.85-0.758-0.64-0.215-1.29-0.371-1.96-0.516-1.33-0.285-2.7-0.398-4.09-0.406" fill="#3c2015"/></g>
  <g><path d="m113.38 96.141c0.73 0.047 1.46-0.02 2.12-0.203 0.66-0.2 1.24-0.543 1.57-1.051 0.36-0.496 0.5-1.125 0.54-1.778 0.04-0.652-0.05-1.336-0.17-2.011l0.06 0.187c-0.26-0.476-0.6-0.996-0.94-1.469-0.35-0.476-0.71-0.953-1.09-1.41s-0.79-0.886-1.21-1.316l-0.64-0.625c-0.21-0.215-0.44-0.395-0.67-0.598-0.44-0.394-0.92-0.758-1.4-1.125-0.5-0.328-0.97-0.703-1.5-1-0.51-0.328-1.04-0.613-1.59-0.894-0.53-0.301-1.1-0.52-1.66-0.809 0.6 0.117 1.23 0.199 1.83 0.387l0.9 0.277c0.3 0.09 0.58 0.235 0.88 0.352 0.59 0.226 1.14 0.531 1.7 0.836 0.28 0.156 0.54 0.336 0.81 0.5s0.53 0.347 0.78 0.547c0.25 0.195 0.51 0.374 0.75 0.585l0.73 0.625c0.46 0.442 0.9 0.899 1.32 1.375 0.42 0.481 0.82 0.981 1.18 1.508 0.36 0.535 0.7 1.055 1.01 1.668l0.04 0.094 0.02 0.094c0.1 0.761 0.14 1.547 0.03 2.343-0.11 0.79-0.4 1.622-0.99 2.254-0.59 0.629-1.42 0.95-2.19 0.996-0.78 0.067-1.53-0.074-2.22-0.339" fill="#3c2015"/></g>
  <g><path d="m169.41 163.45l-49.5-51.13c0.38-0.09 0.77-0.19 1.14-0.33 0.65-0.19 1.27-0.46 1.89-0.73 0.14-0.06 0.27-0.13 0.41-0.19 1.4-0.57 2.86-1.23 4.36-2.03l46.7 49.79c-2.12 3.39-5 4.62-5 4.62" fill="#df9565"/></g>
  <g><path d="m119.91 112.32l-0.02-0.02c1.09-0.34 2.25-0.75 3.46-1.23-0.14 0.06-0.27 0.13-0.41 0.19-0.62 0.27-1.24 0.54-1.89 0.73-0.37 0.14-0.76 0.24-1.14 0.33" fill="#804a2d"/></g>
  <g><path d="m114.25 96.109c-0.05-0.011-0.1-0.023-0.15-0.039-0.11-0.226-0.62-1.234-1.74-2.324-0.82-0.824-1.8-1.476-2.83-1.961-1.5-0.711-3.42-1.219-5.88-1.219-0.3 0-0.61 0.008-0.93 0.024l-0.54-0.34-0.23-0.145c-0.46-0.293-0.76-0.902-0.94-1.582-0.19-0.742-0.3-1.835-0.19-3.429 0 0 13.67 2.308 15.98 10.031 0 0-0.06 0.156-0.31 0.348-0.12 0.089-0.26 0.168-0.4 0.238-0.39 0.176-0.97 0.336-1.84 0.398" fill="#df9565"/></g>
  <g><path d="m102.18 90.25l-0.41-0.254s-0.47-0.285-0.76-1.473c0.18 0.68 0.48 1.289 0.94 1.582l0.23 0.145" fill="#804a2d"/></g>
  <g><path d="m114.12 96.117s-0.01-0.015-0.02-0.047c0.05 0.016 0.1 0.028 0.15 0.039-0.04 0.004-0.09 0.004-0.13 0.008" fill="#d48555"/></g>
  <g><path d="m112.36 93.746c-0.69-0.676-1.62-1.387-2.83-1.961 1.03 0.485 2.01 1.137 2.83 1.961" fill="#804a2d"/></g>
  <g><path d="m116.09 95.711c0.14-0.07 0.28-0.149 0.4-0.238-0.1 0.078-0.23 0.16-0.4 0.238" fill="#804a2d"/></g>
  <g><path d="m118.7 90.715l-0.01-0.016c-0.01-0.023-0.03-0.051-0.04-0.074-0.04-0.133-0.1-0.199-0.1-0.199-0.96-1.723-2.11-3.09-3.25-4.16-0.04-0.039-0.09-0.078-0.12-0.118l-0.08-0.07c-0.25-0.223-0.49-0.433-0.74-0.629-0.06-0.054-0.13-0.109-0.2-0.16-0.18-0.144-0.35-0.277-0.53-0.406-0.2-0.16-0.42-0.313-0.65-0.449-1.73-1.149-3.05-1.586-3.05-1.586-0.02-0.02-0.03-0.039-0.05-0.059l-0.25-0.418c-0.43-0.969-0.16-2.398 0.2-3.562 0.13-0.395 0.27-0.786 0.43-1.168 0.11-0.262 0.23-0.543 0.35-0.813 3.01 1.129 8.53 8.192 8.53 8.192-0.69 1.75-0.87 4.16-0.87 4.16l1.02 1.261-0.59 0.274" fill="#df9565"/></g>
  <g><path d="m109.88 82.789c-0.1-0.125-0.18-0.266-0.25-0.418l0.25 0.418m-0.05-3.98c0.35-1.114 0.78-1.981 0.78-1.981-0.12 0.27-0.24 0.551-0.35 0.813-0.16 0.382-0.3 0.773-0.43 1.168" fill="#804a2d"/></g>
  <g><path d="m118.75 90.914v-0.027l-0.02-0.094-0.03-0.078 0.59-0.274 0.04 0.047-0.58 0.426" fill="#d48555"/></g>
  <g><path d="m118.68 90.969c0.02-0.145 0-0.258-0.03-0.344 0.01 0.023 0.03 0.051 0.04 0.074l0.04 0.094 0.02 0.094v0.027l-0.07 0.055m-3.38-4.703c-0.07-0.063-0.14-0.125-0.2-0.188l0.08 0.07c0.03 0.04 0.08 0.079 0.12 0.118m-0.94-0.817c-0.06-0.054-0.13-0.109-0.2-0.16 0.07 0.051 0.14 0.106 0.2 0.16m-0.73-0.566c-0.22-0.16-0.43-0.313-0.65-0.449 0.23 0.136 0.45 0.289 0.65 0.449" fill="#804a2d"/></g>
  <g><path d="m123.1 80.562c-0.01-0.058-0.02-0.117-0.03-0.175-0.03-0.34-0.12-0.676-0.21-0.996-0.18-0.539-0.42-1.032-0.72-1.536l0.06 0.094c-0.13-0.293-0.25-0.601-0.43-0.883-0.16-0.285-0.36-0.558-0.58-0.8-0.44-0.504-0.97-0.922-1.56-1.215-0.14-0.078-0.29-0.153-0.44-0.211-0.15-0.059-0.3-0.137-0.46-0.172-0.31-0.09-0.62-0.172-0.93-0.215-0.03 0-0.06-0.004-0.09-0.008l2.11-4.449c2.44 1.277 4.02 9.25 4.18 10.082-0.04 0.02-0.07 0.035-0.11 0.051-0.27 0.137-0.53 0.281-0.79 0.433" fill="#df9565"/></g>
  <g><path d="m123.1 80.578v-0.016c0.26-0.152 0.52-0.296 0.79-0.433 0.04-0.016 0.07-0.031 0.11-0.051 0 0.047 0.01 0.07 0.01 0.07l-0.91 0.43" fill="#804a2d"/></g>
  <g><path d="m123.07 80.387c-0.74-4.516-5.36-5.942-5.36-5.942 0.03 0.004 0.06 0.008 0.09 0.008 0.31 0.043 0.62 0.125 0.93 0.215 0.16 0.035 0.31 0.113 0.46 0.172 0.15 0.058 0.3 0.133 0.44 0.211 0.59 0.293 1.12 0.711 1.56 1.215 0.22 0.242 0.42 0.515 0.58 0.8 0.18 0.282 0.3 0.59 0.43 0.883l-0.06-0.094c0.3 0.504 0.54 0.997 0.72 1.536 0.09 0.32 0.18 0.656 0.21 0.996" fill="#804a2d"/></g>
  <g><path d="m185.85 237.12c-7.63-39.13 10.04-74.3 10.22-74.65l0.08-0.15 0.15-0.07c1.88-0.88 3.77-1.33 5.63-1.33 3.18 0 5.15 1.31 5.23 1.37l0.31 0.21-0.12 0.36c-13.74 39.68-14.69 61-14.7 61.21l-0.01 0.09-6.5 14.48-0.29-1.52" fill="#f47c37"/></g>
  <g><path d="m201.93 160.43c-1.94 0-3.9 0.46-5.84 1.38l-0.3 0.14-0.15 0.3c-0.19 0.35-17.94 35.67-10.28 74.96l0.6 3.05 1.27-2.83 5.83-12.98 0.08-0.17v-0.19c0.01-0.21 0.97-21.48 14.68-61.07l0.24-0.71-0.62-0.43c-0.09-0.06-2.18-1.45-5.51-1.45m0 0.98c3.07 0 4.95 1.29 4.95 1.29-13.93 40.23-14.72 61.35-14.72 61.35l-5.83 12.98c-7.68-39.42 10.18-74.33 10.18-74.33 2.04-0.97 3.88-1.29 5.42-1.29" fill="#3c2015"/></g>
  <g><path d="m248.36 163.06c12.64 20.41 14.18 59.68 14.18 59.68l-3.92-9.94c1.16 8.05 1.24 12.75 1.24 12.75l4.13 12.98c9.96-39.31-8.48-74.33-8.48-74.33-2.89-1.36-5.35-1.43-7.15-1.14" fill="#f0572f"/></g>
  <g><path d="m206.88 162.7s-2.32-1.58-6.01-1.23c-2.96 9.32-13.99 46.02-12.44 70.87l3.73-8.29s0.79-21.12 14.72-61.35" fill="#f0572f"/></g>
  <g><path d="m217.99 250.66c-1.42-3.43-2.24-6.03-2.25-6.06 0.24-4.17 0.81-8.48 1.56-12.67 0-0.02 0-0.04 0.01-0.05 0-0.02 0.01-0.04 0.01-0.06s0-0.03 0.01-0.04v-0.02c0-0.01 0-0.02 0.01-0.03v-0.03-0.02c0.01-0.02 0.01-0.02 0.01-0.04 0 0 0-0.01 0.01-0.02v-0.04-0.01c0.43-2.35 0.91-4.67 1.42-6.9v-0.01c0-0.01 0.01-0.02 0.01-0.04v-0.01c0.01-0.02 0.01-0.03 0.01-0.04v-0.02c0-0.01 0.01-0.01 0.01-0.02 0.53-2.32 1.08-4.54 1.64-6.62-0.67 6.97-2.16 23.08-2.46 32.75" fill="#81addb"/></g>
  <g><path d="m215.74 244.6m1.56-12.67m0.01-0.05m0.01-0.06m0.01-0.04v-0.02 0.02m0.01-0.05v-0.03 0.03m0-0.05c0.01-0.01 0.01-0.02 0.01-0.04 0 0.02 0 0.02-0.01 0.04m0.02-0.06v-0.04 0.04m0-0.05c0.43-2.35 0.91-4.67 1.42-6.9-0.51 2.23-0.99 4.55-1.42 6.9m1.42-6.91c0-0.01 0.01-0.02 0.01-0.04 0 0.02-0.01 0.03-0.01 0.04m0.01-0.05c0-0.02 0.01-0.03 0.01-0.04 0 0.01 0 0.02-0.01 0.04m0.01-0.06c0-0.01 0.01-0.01 0.01-0.02 0 0.01-0.01 0.01-0.01 0.02" fill="#70594d"/></g>
  <g><path d="m186.33 237.03c-4.21-21.6-0.75-41.82 3.24-55.71-1.95 15.33-4.2 38.66-2.16 53.3l-1.08 2.41" fill="#f49d66"/></g>
  <g><path d="m226.98 147.1c-2.48 0-15.07-0.87-18.75-18.08l-0.07-0.35 0.34-0.1c0.09-0.02 8.9-2.42 19.78-2.42 7.3 0 13.87 1.06 19.52 3.15l0.3 0.11-0.06 0.32c-0.02 0.15-2.93 14.86-20.58 17.36-0.03 0-0.19 0.01-0.48 0.01" fill="#ba3339"/></g>
  <g><path d="m228.28 125.77c-10.93 0-19.79 2.41-19.88 2.43l-0.69 0.2 0.15 0.71c3.74 17.48 16.58 18.37 19.12 18.37 0.31 0 0.48-0.01 0.48-0.01h0.02l0.03-0.01c17.92-2.53 20.88-17.51 20.91-17.66l0.12-0.63-0.61-0.23c-5.69-2.1-12.3-3.17-19.65-3.17zm0 0.76c6.14 0 12.99 0.76 19.39 3.13 0 0-2.68 14.56-20.27 17.04 0 0-0.15 0.01-0.42 0.01-2.44 0-14.76-0.84-18.37-17.77 0 0 8.72-2.41 19.67-2.41" fill="#3c2015"/></g>
  <g><path d="m237.61 136.09c0 4.44-4.5 8.04-10.07 8.04-5.56 0-10.06-3.6-10.06-8.04s4.5-8.04 10.06-8.04c5.57 0 10.07 3.6 10.07 8.04" fill="#81161d"/></g>
  <g><path d="m246.84 132.66c-4.57-0.14-8.65-0.2-13.23-0.2-2.94 0-5.88 0.02-9.17 0.05-4.18 0.04-8.93 0.08-14.97 0.08h-0.28l-0.08-0.27c-0.35-1.05-0.59-1.94-0.88-3.3l-0.07-0.35 0.34-0.1c0.09-0.02 8.9-2.42 19.78-2.42 7.3 0 13.87 1.06 19.52 3.15l0.25 0.09v0.27c0 0.07-0.01 0.84-0.84 2.77l-0.1 0.25-0.27-0.02" fill="#fff"/></g>
  <g><path d="m228.28 125.77c-10.93 0-19.79 2.41-19.88 2.43l-0.69 0.2 0.15 0.71c0.29 1.36 0.53 2.27 0.88 3.34l0.17 0.52h0.56c6.04 0 10.79-0.04 14.98-0.08 3.34-0.03 6.22-0.05 9.16-0.05 4.57 0 8.65 0.06 13.22 0.21l0.53 0.02 0.2-0.48c0.84-1.97 0.88-2.79 0.87-2.94v-0.53l-0.5-0.18c-5.69-2.1-12.3-3.17-19.65-3.17zm0 0.76c6.14 0 12.99 0.76 19.39 3.13 0 0 0.01 0.71-0.81 2.62-5.06-0.16-9.16-0.21-13.25-0.21-6.68 0-13.35 0.14-24.14 0.14-0.36-1.1-0.59-2-0.86-3.27 0 0 8.72-2.41 19.67-2.41" fill="#3c2015"/></g>
  <g><path d="m247.43 130.44c0.15-0.48 0.24-0.78 0.24-0.78-17.81-6.59-39.06-0.72-39.06-0.72 0.09 0.42 0.23 0.98 0.4 1.56 7.59-0.75 22.95-1.81 38.42-0.06" fill="#d0d2d0"/></g>
  <g><path d="m209.86 125.77s-0.06 0.1-0.16 0.26c-0.11 0.15-0.23 0.39-0.39 0.65-0.16 0.27-0.32 0.59-0.51 0.92-0.14 0.36-0.37 0.69-0.49 1.08-0.14 0.37-0.31 0.73-0.4 1.1s-0.25 0.7-0.29 1.01c-0.12 0.6-0.25 1.03-0.25 1.03s-0.11-0.41-0.18-1.07c-0.02-0.17-0.04-0.35-0.01-0.53 0.02-0.19 0.04-0.39 0.07-0.6 0.05-0.19 0.04-0.42 0.14-0.62 0.07-0.2 0.15-0.41 0.22-0.62 0.14-0.42 0.41-0.78 0.62-1.13 0.11-0.17 0.25-0.32 0.37-0.46 0.12-0.15 0.24-0.28 0.37-0.38 0.48-0.45 0.89-0.64 0.89-0.64" fill="#3c2015"/></g>
  <g><path d="m246.42 126.53s0.4 0.18 0.88 0.63c0.13 0.11 0.25 0.24 0.37 0.39 0.12 0.14 0.26 0.29 0.38 0.46 0.2 0.35 0.47 0.71 0.61 1.13 0.08 0.21 0.16 0.41 0.23 0.62 0.09 0.2 0.09 0.42 0.13 0.62 0.03 0.21 0.05 0.41 0.07 0.6 0.04 0.18 0.02 0.36 0 0.52-0.08 0.66-0.18 1.08-0.18 1.08s-0.14-0.43-0.26-1.03c-0.03-0.31-0.19-0.64-0.29-1.01-0.08-0.37-0.25-0.73-0.4-1.11-0.11-0.38-0.35-0.72-0.49-1.07-0.19-0.33-0.34-0.66-0.51-0.92-0.16-0.26-0.27-0.51-0.38-0.65-0.1-0.17-0.16-0.26-0.16-0.26" fill="#3c2015"/></g>
  <g><path d="m226.99 147.1c-1.58 0-7.14-0.36-11.97-4.9l-0.31-0.3 0.33-0.28c2.16-1.78 6.66-4.77 12.56-4.77 4.22 0 8.4 1.53 12.43 4.56l0.4 0.3-0.39 0.31c-3.43 2.67-7.66 4.37-12.58 5.07-0.03 0-0.19 0.01-0.47 0.01" fill="#e96f7e"/></g>
  <g><path d="m227.6 136.46c-6.02 0-10.6 3.05-12.8 4.87l-0.67 0.55 0.63 0.6c4.93 4.64 10.61 5 12.23 5 0.3 0 0.47-0.01 0.47-0.01h0.02l0.03-0.01c4.98-0.7 9.28-2.43 12.76-5.14l0.79-0.61-0.8-0.6c-4.1-3.08-8.36-4.65-12.66-4.65zm0 0.77c3.62 0 7.77 1.15 12.2 4.49-2.95 2.29-6.96 4.22-12.4 4.98 0 0-0.14 0.01-0.41 0.01-1.51 0-6.96-0.33-11.7-4.79 2.05-1.7 6.49-4.69 12.31-4.69" fill="#3c2015"/></g>
  <g><path d="m201.45 109.14s-0.14-0.53-0.22-1.5c-0.07-0.96-0.1-2.37 0.28-4.05 0.18-0.84 0.48-1.73 0.94-2.64 0.44-0.91 1.1-1.805 1.96-2.571 0.85-0.781 1.91-1.399 3.05-1.766 1.14-0.383 2.34-0.562 3.52-0.551 0.31 0.012 0.52 0 0.93 0.032 0.37 0.043 0.68 0.121 1 0.215 0.62 0.203 1.21 0.48 1.73 0.859 1.03 0.75 1.79 1.758 2.28 2.789 0.96 2.093 1.01 4.153 0.92 5.813-0.04 0.84-0.16 1.6-0.27 2.26-0.11 0.67-0.27 1.23-0.38 1.7s-0.24 0.82-0.31 1.07c-0.08 0.25-0.12 0.38-0.12 0.38s0.01-0.55 0.01-1.5c0.01-0.95 0-2.31-0.15-3.88-0.18-1.56-0.5-3.41-1.41-4.95-0.44-0.78-1.04-1.452-1.77-1.909-0.37-0.226-0.76-0.418-1.17-0.531-0.43-0.137-0.71-0.125-1.27-0.113-0.99 0.039-1.96 0.137-2.86 0.414-0.89 0.281-1.7 0.699-2.41 1.227-1.41 1.082-2.32 2.642-2.93 4.062-0.59 1.44-0.9 2.75-1.09 3.67-0.19 0.93-0.26 1.47-0.26 1.47" fill="#3c2015"/></g>
  <g><path d="m201.41 108.11s-3.38-1.01-3.07-4.36c0 0 2 1.04 3.7 0.43 0 0-0.68 2.89-0.63 3.93" fill="#3c2015"/></g>
  <g><path d="m254.82 109.14s-0.07-0.54-0.25-1.47c-0.19-0.92-0.51-2.23-1.1-3.67-0.6-1.42-1.52-2.98-2.93-4.062-0.7-0.528-1.52-0.946-2.41-1.227-0.89-0.277-1.86-0.375-2.85-0.414-0.57-0.012-0.85-0.024-1.28 0.113-0.41 0.113-0.8 0.305-1.16 0.531-0.73 0.457-1.34 1.129-1.77 1.909-0.92 1.54-1.23 3.39-1.41 4.95-0.16 1.57-0.17 2.93-0.16 3.88s0.02 1.5 0.02 1.5-0.04-0.13-0.12-0.38c-0.07-0.25-0.2-0.6-0.32-1.07-0.11-0.47-0.27-1.03-0.37-1.7-0.12-0.66-0.24-1.42-0.28-2.26-0.09-1.66-0.04-3.72 0.93-5.813 0.48-1.031 1.24-2.039 2.28-2.789 0.51-0.379 1.1-0.656 1.72-0.859 0.32-0.094 0.63-0.172 1-0.215 0.41-0.032 0.62-0.02 0.94-0.032 1.17-0.011 2.38 0.168 3.51 0.551 1.14 0.367 2.21 0.985 3.05 1.766 0.86 0.766 1.52 1.661 1.96 2.571 0.47 0.91 0.77 1.8 0.95 2.64 0.37 1.68 0.34 3.09 0.27 4.05-0.08 0.97-0.22 1.5-0.22 1.5" fill="#3c2015"/></g>
  <g><path d="m254.87 108.11s3.38-1.01 3.06-4.36c0 0-2 1.04-3.7 0.43 0 0 0.68 2.89 0.64 3.93" fill="#3c2015"/></g>
  <g><path d="m184.15 96.734c-0.17-0.687-1.19-3.906-5.01-5.046l-0.52-0.153-0.01-0.543c-0.04-0.879-0.63-21.687 9.34-32.015 3.59-3.707 8.11-5.59 13.46-5.59 1.44 0 2.97 0.14 4.54 0.414l0.48 0.086 4.21 16.148-0.08 0.223c-0.47 1.293-11.81 31.732-27.49 39.542l-1.34 0.67 2.42-13.736" fill="#eeac3d"/></g>
  <g><path d="m201.41 52.633c-5.56 0-10.27 1.961-14 5.82-10.2 10.559-9.59 31.672-9.55 32.567l0.03 1.082 1.04 0.308c3.21 0.961 4.21 3.563 4.45 4.36l-2.13 12.1-0.52 2.94 2.68-1.33c15.94-7.94 27.38-38.66 27.86-39.96l0.16-0.446-0.12-0.457-4.03-15.453-0.24-0.937-0.96-0.168c-1.61-0.282-3.18-0.426-4.67-0.426m0 1.508c1.38 0 2.85 0.129 4.41 0.406l4.04 15.449s-11.54 31.364-27.13 39.134l2.19-12.415s-0.85-4.344-5.56-5.746c0 0-1.27-36.824 22.05-36.828" fill="#3c2015"/></g>
  <g><path d="m180.3 91.305c-0.3-0.125-0.61-0.239-0.94-0.336 0 0-1.27-36.66 21.89-36.828-0.41 1.836-0.24 3.98 0.5 6.402-0.55-0.148-1.36-0.305-2.36-0.305-4.95 0-14.47 3.813-19.09 31.067" fill="#f2c36b"/></g>
  <g><path d="m180.3 91.309c-0.3-0.125-0.6-0.243-0.94-0.34 0 0-1.27-36.668 21.89-36.828-23.16 0.168-21.89 36.828-21.89 36.828 0.33 0.097 0.64 0.211 0.94 0.336v0.004" fill="#70594d"/></g>
  <g><path d="m209.86 69.996l-1.5-5.75c-3.54-2.008-5.82-3.434-5.82-3.434-2.23 15.067-11.17 28.579-17.78 36.805l-2.03 11.513c15.59-7.77 27.13-39.134 27.13-39.134" fill="#cf8a25"/></g>
  <g><path d="m183.3 109.63c0.02-0.02 4.75-5.33 9.86-13.646s10.62-19.64 12.15-31.746l-1.5-0.187c-1.48 11.769-6.88 22.937-11.93 31.144-2.53 4.106-4.96 7.465-6.76 9.805-0.89 1.16-1.64 2.07-2.15 2.69-0.26 0.31-0.46 0.55-0.59 0.7-0.14 0.16-0.21 0.24-0.21 0.24l1.13 1" fill="#3c2015"/></g>
  <g><path d="m265.9 104.91c-1.06-7.152-26.15-14.824-35.81-17.199-20.6-1.938-27.32-26.457-27.39-26.707-1.22-3.473-1.22-6.375-0.01-8.57 1.41-2.532 3.92-3.125 4.03-3.149 5.44-1.398 10.81-2.109 15.92-2.109 31.42 0 45.42 26.773 45.56 27.047 7.16 15.621-0.81 30.787-0.89 30.937l-1.08 2-0.33-2.25" fill="#eeac3d"/></g>
  <g><path d="m222.64 46.422c-5.18 0-10.6 0.719-16.13 2.14-0.08 0.016-2.91 0.68-4.48 3.504-1.32 2.379-1.33 5.469-0.04 9.188 0.45 1.66 7.2 25.211 27.97 27.203 13.18 3.242 34.3 10.582 35.19 16.563l0.67 4.5 2.15-4c0.34-0.64 8.23-15.653 0.93-31.582l-0.01-0.032-0.01-0.027c-0.15-0.281-3.61-6.981-11.03-13.746-6.87-6.254-18.55-13.711-35.21-13.711m0 1.508c31.32 0 44.89 26.632 44.89 26.632 7.08 15.434-0.89 30.238-0.89 30.238-1.37-9.238-36.42-17.835-36.42-17.835-20.36-1.871-26.79-26.153-26.79-26.153-3.25-9.285 3.45-10.792 3.45-10.792 5.69-1.458 10.94-2.09 15.76-2.09" fill="#3c2015"/></g>
  <g><path d="m269.88 81.992c-10.17-27.488-51.62-29.808-65.29-29.808-0.29 0-0.57 0-0.83 0.004 1.28-1.739 3.12-2.168 3.12-2.168 1.26-0.321 2.5-0.606 3.72-0.848 4.28-0.86 8.28-1.242 12.04-1.242 31.32 0 44.89 26.632 44.89 26.632 0.01 0.012 0.01 0.024 0.01 0.036 1.15 2.5 1.89 4.984 2.34 7.394" fill="#f2c36b"/></g>
  <g><path d="m267.54 74.598c0-0.012 0-0.024-0.01-0.036 0.01 0.012 0.01 0.024 0.01 0.036m-60.66-24.578c1.26-0.321 2.5-0.606 3.72-0.848-1.22 0.242-2.46 0.527-3.72 0.848" fill="#70594d"/></g>
  <g><path d="m238.64 76.828c-11.77-1.605-30.37-12.531-35.02-15.351 1.21 3.894 8.24 23.8 26.6 25.488 0 0 35.05 8.597 36.42 17.835 0 0 0.36-0.66 0.84-1.84 2.45-18.022-16.71-24.483-28.84-26.132" fill="#cf8a25"/></g>
  <g><path d="m188.29 65.102s-0.82 1.925-1.87 4.839c-0.53 1.457-1.1 3.168-1.64 5.012-0.28 0.922-0.51 1.887-0.76 2.859-0.24 0.977-0.46 1.977-0.63 2.981-0.19 1-0.33 2.008-0.43 3-0.1 0.996-0.17 1.973-0.18 2.926 0.01 0.945 0.02 1.863 0.1 2.73 0.09 0.863 0.21 1.676 0.35 2.426 0.18 0.742 0.34 1.426 0.54 2.016 0.17 0.601 0.41 1.093 0.55 1.523 0.38 0.828 0.6 1.301 0.6 1.301s-0.08-0.106-0.23-0.301c-0.14-0.195-0.37-0.476-0.63-0.859-0.22-0.399-0.56-0.86-0.82-1.446-0.14-0.293-0.3-0.601-0.44-0.933-0.13-0.34-0.26-0.699-0.4-1.074-0.24-0.758-0.47-1.598-0.63-2.5-0.16-0.903-0.27-1.868-0.32-2.864-0.02-1-0.04-2.031 0.06-3.074 0.09-1.043 0.21-2.098 0.4-3.137 0.39-2.082 0.94-4.125 1.61-5.98 0.32-0.934 0.68-1.813 1.03-2.645 0.36-0.828 0.72-1.597 1.07-2.3 1.41-2.817 2.67-4.5 2.67-4.5" fill="#3c2015"/></g>
  <g><path d="m267.36 106.16c0.02-0.05 0.67-2.14 0.68-4.93-0.01-2.011-0.35-4.41-1.58-6.648s-3.36-4.281-6.77-5.531c-2.81-1.035-6.99-2.117-11.87-3.457-7.31-2.008-16.2-4.586-24.29-8.324-8.09-3.735-15.35-8.633-19.46-15.184l-1.28 0.801c2.91 4.629 7.23 8.394 12.21 11.519 7.48 4.688 16.48 7.938 24.64 10.41 8.15 2.465 15.49 4.161 19.53 5.653 3.11 1.144 4.9 2.906 5.97 4.84 1.06 1.933 1.39 4.078 1.39 5.921 0 1.28-0.16 2.41-0.31 3.21-0.08 0.4-0.15 0.72-0.21 0.94-0.03 0.11-0.05 0.19-0.06 0.25l-0.02 0.06v0.01l1.43 0.46" fill="#3c2015"/></g>
  <g><path d="m200.78 54.324c0.03 0.141 0.66 2.539 4.23 5.59 3.58 3.055 10.07 6.777 21.84 9.688 10.12 2.5 20.46 5.246 28.19 9.378 3.86 2.067 7.07 4.469 9.28 7.329 2.22 2.859 3.48 6.156 3.48 10.14 0 2.473-0.48 5.211-1.57 8.261l1.43 0.5c1.12-3.18 1.65-6.089 1.65-8.761 0.01-4.308-1.39-7.984-3.79-11.066-3.61-4.629-9.4-7.977-16.17-10.66-6.77-2.688-14.53-4.703-22.14-6.586-11.61-2.867-17.88-6.508-21.22-9.367-1.67-1.43-2.61-2.668-3.13-3.528-0.27-0.43-0.42-0.762-0.51-0.98-0.05-0.114-0.08-0.192-0.09-0.242l-0.01-0.047-0.04 0.007 0.04-0.007-0.04 0.007 0.04-0.007-1.47 0.351" fill="#3c2015"/></g>
  <g><path d="m213.42 47.27c-0.03 0.019-0.9 0.503-1.81 1.359-0.45 0.43-0.91 0.953-1.27 1.578-0.36 0.621-0.62 1.355-0.62 2.172-0.01 1.223 0.6 2.531 1.98 3.75 1.37 1.23 3.53 2.441 6.8 3.644 3.89 1.422 8.97 2.207 14.45 3.161 8.23 1.421 17.32 3.226 24.35 7.859 3.52 2.316 6.53 5.324 8.71 9.367s3.54 9.137 3.7 15.637l1.5-0.039c-0.2-8.914-2.64-15.449-6.46-20.246-5.74-7.2-14.45-10.426-23.05-12.407-4.31-0.992-8.6-1.667-12.51-2.351-3.91-0.688-7.43-1.391-10.17-2.395-3.17-1.16-5.16-2.32-6.32-3.355-1.15-1.047-1.47-1.902-1.47-2.625 0-0.492 0.15-0.965 0.41-1.422 0.4-0.68 1.03-1.293 1.57-1.719 0.26-0.211 0.51-0.379 0.68-0.488l0.2-0.125 0.05-0.031 0.01-0.004-0.73-1.32" fill="#3c2015"/></g>
  <g><path d="m203.14 57.93c-0.07-0.032-0.87-0.403-2.11-0.403-0.91 0-2.07 0.207-3.29 0.887-1.23 0.676-2.52 1.82-3.76 3.648l-0.05 0.071-0.03 0.078c-0.01 0.012-2.71 6.953-5.55 15.875-2.85 8.926-5.83 19.805-6.37 27.794l1.51 0.1c0.51-7.726 3.46-18.57 6.29-27.437 1.42-4.438 2.8-8.383 3.83-11.223 0.51-1.418 0.93-2.558 1.23-3.347 0.3-0.785 0.46-1.211 0.46-1.215l-0.7-0.274 0.63 0.426c1.13-1.668 2.25-2.629 3.24-3.18 0.99-0.546 1.87-0.695 2.56-0.695 0.47 0 0.85 0.07 1.1 0.141 0.13 0.035 0.23 0.066 0.29 0.09l0.06 0.023 0.01 0.008 0.12-0.274-0.12 0.27v0.004l0.12-0.274-0.12 0.27 0.65-1.363" fill="#3c2015"/></g>
  <g><path d="m217.48 36.637c0 0.004-0.3-0.059-0.8-0.102-0.25-0.039-0.56-0.058-0.91-0.07-0.35-0.004-0.73-0.055-1.16-0.051-0.43 0.016-0.9 0.027-1.38 0.02-0.48-0.032-1 0.086-1.52 0.101-0.53 0.047-1.07 0.059-1.62 0.137-0.55 0.086-1.11 0.168-1.67 0.254-0.56 0.066-1.13 0.113-1.67 0.262-0.54 0.136-1.09 0.222-1.61 0.332-0.52 0.113-1.04 0.175-1.52 0.281-0.47 0.137-0.92 0.246-1.35 0.344-1.68 0.41-2.87 0.566-2.87 0.566s1-0.625 2.6-1.387c0.39-0.191 0.83-0.398 1.29-0.601 0.48-0.184 0.99-0.336 1.52-0.489 0.53-0.152 1.08-0.332 1.65-0.468 0.56-0.172 1.15-0.243 1.74-0.332 0.59-0.071 1.18-0.141 1.76-0.211 0.58-0.078 1.16-0.004 1.72-0.012 0.56 0.019 1.1 0 1.61 0.101 0.51 0.075 0.99 0.165 1.42 0.25 0.44 0.075 0.83 0.239 1.18 0.34 0.34 0.098 0.64 0.227 0.88 0.348 0.47 0.215 0.71 0.387 0.71 0.387" fill="#3c2015"/></g>
  <g><path d="m222.78 35.832s1.52-0.621 3.95-1.047c1.2-0.219 2.63-0.398 4.17-0.453 0.77-0.043 1.57-0.027 2.38-0.016 0.81 0.063 1.63 0.098 2.45 0.196 0.82 0.136 1.65 0.215 2.44 0.418 0.79 0.172 1.57 0.363 2.31 0.625 0.74 0.23 1.45 0.472 2.09 0.789 0.64 0.301 1.27 0.547 1.79 0.89 0.53 0.317 1.02 0.618 1.44 0.883 0.4 0.297 0.74 0.586 1.01 0.809 0.56 0.457 0.86 0.726 0.86 0.726s-0.37-0.172-1.02-0.472c-0.31-0.157-0.7-0.344-1.14-0.559-0.46-0.176-0.97-0.371-1.52-0.601-0.54-0.25-1.18-0.395-1.82-0.622-0.63-0.234-1.34-0.378-2.06-0.57-0.7-0.211-1.47-0.308-2.23-0.469-0.75-0.179-1.55-0.23-2.33-0.351-0.78-0.11-1.57-0.164-2.35-0.238-0.78-0.016-1.54-0.118-2.29-0.114-0.75-0.011-1.47-0.047-2.16-0.035-0.68 0.008-1.34 0.016-1.94 0.024-2.4 0.058-4.03 0.187-4.03 0.187" fill="#3c2015"/></g>
 </g>
</svg>